<?xml version="1.0" ?><svg xmlns="http://www.w3.org/2000/svg" xmlns:xlink="http://www.w3.org/1999/xlink" version="1.1" viewBox="0 0 94 94" style="enable-background:new 0 0 94 94;" xml:space="preserve"><style type="text/css">
	.st0{display:none;}
	.st1{display:inline;fill:#FEA900;}
	.st2{display:inline;}
	.st3{display:inline;fill:#F9CD6C;}
	.st4{display:inline;fill:none;stroke:#000000;stroke-width:0.25;stroke-miterlimit:10;}
	.st5{stroke:#000000;stroke-linecap:round;stroke-linejoin:round;stroke-miterlimit:10;}
	.st6{opacity:0.2;stroke:#000000;stroke-linecap:round;stroke-linejoin:round;stroke-miterlimit:10;}
	.st7{fill:#F12A00;stroke:#000000;stroke-linecap:round;stroke-linejoin:round;stroke-miterlimit:10;}
	.st8{fill:#FBECCF;stroke:#000000;stroke-linecap:round;stroke-linejoin:round;stroke-miterlimit:10;}
	.st9{opacity:0.2;fill:#F12A00;}
	.st10{fill:#F7C86C;stroke:#000000;stroke-linecap:round;stroke-linejoin:round;stroke-miterlimit:10;}
	.st11{fill:none;stroke:#000000;stroke-linecap:round;stroke-linejoin:round;stroke-miterlimit:10;}
	.st12{display:inline;stroke:#000000;stroke-linecap:round;stroke-linejoin:round;stroke-miterlimit:10;}
	.st13{fill:#FAAC01;stroke:#000000;stroke-linecap:round;stroke-linejoin:round;stroke-miterlimit:10;}
	.st14{fill:#FAAC01;}
	.st15{display:inline;fill:#FAEBCE;stroke:#000000;stroke-width:0.25;stroke-miterlimit:10;}
	.st16{display:inline;fill:none;stroke:#000000;stroke-width:1.0164;stroke-miterlimit:10;}
	.st17{display:inline;fill:#FAEBCE;stroke:#000000;stroke-width:1.0164;stroke-miterlimit:10;}
	.st18{fill:#FEA900;}
	.st19{fill:#F9CD6C;}
	.st20{fill:none;stroke:#000000;stroke-width:1.0164;stroke-miterlimit:10;}
	.st21{fill:#FAEBCE;stroke:#000000;stroke-width:1.0164;stroke-miterlimit:10;}
	.st22{display:inline;fill:#FAEBCE;}
	.st23{fill:#008FF5;stroke:#000000;stroke-linecap:round;stroke-linejoin:round;stroke-miterlimit:10;}
	.st24{fill:#D0E6FB;stroke:#000000;stroke-linecap:round;stroke-linejoin:round;stroke-miterlimit:10;}
	.st25{fill:#FFFFFF;stroke:#000000;stroke-linecap:round;stroke-linejoin:round;stroke-miterlimit:10;}
	.st26{fill:#75D95D;stroke:#000000;stroke-linecap:round;stroke-linejoin:round;stroke-miterlimit:10;}
	.st27{fill:#CAF3BB;}
	.st28{fill:#FFFFFF;}
	.st29{fill:#CAF3BB;stroke:#000000;stroke-linecap:round;stroke-linejoin:round;stroke-miterlimit:10;}
	.st30{display:inline;fill:#D0E6FB;stroke:#000000;stroke-linecap:round;stroke-linejoin:round;stroke-miterlimit:10;}
	.st31{stroke:#FFFFFF;stroke-linecap:round;stroke-linejoin:round;stroke-miterlimit:10;}
	.st32{fill:#B4B2FB;stroke:#000000;stroke-linecap:round;stroke-linejoin:round;stroke-miterlimit:10;}
	.st33{fill:#018BEE;}
	.st34{display:inline;fill:none;stroke:#000000;stroke-linecap:round;stroke-linejoin:round;stroke-miterlimit:10;}
	.st35{fill:#75D95D;}
	.st36{fill:#4949F7;stroke:#000000;stroke-linecap:round;stroke-linejoin:round;stroke-miterlimit:10;}
	.st37{fill:#D0E6FB;}
	.st38{fill:#6FBBF7;stroke:#000000;stroke-linecap:round;stroke-linejoin:round;stroke-miterlimit:10;}
	.st39{fill:#018BEE;stroke:#000000;stroke-linecap:round;stroke-linejoin:round;stroke-miterlimit:10;}
	.st40{fill:#B4B2FB;}
	.st41{fill:#E8E9FE;}
	.st42{fill:#B4B2FB;stroke:#000F24;stroke-miterlimit:10;}
	.st43{stroke:#000000;stroke-miterlimit:10;}
	.st44{fill:#E8E9FE;stroke:#000000;stroke-linecap:round;stroke-linejoin:round;stroke-miterlimit:10;}
	.st45{opacity:0.3;fill:#018BEE;}
	.st46{fill:#6FBBF7;}
	.st47{fill:#FAAC01;stroke:#FFFFFF;stroke-linecap:round;stroke-linejoin:round;stroke-miterlimit:10;}
	.st48{fill:#006A2F;}
	.st49{opacity:0.1;}
	.st50{fill:#FCD4CA;stroke:#000000;stroke-linecap:round;stroke-linejoin:round;stroke-miterlimit:10;}
	.st51{fill:#006A2F;stroke:#000000;stroke-linecap:round;stroke-linejoin:round;stroke-miterlimit:10;}
	.st52{fill:#4949F7;}
	.st53{fill:#F12A00;}
	.st54{fill:#D0E6FB;stroke:#018BEE;stroke-linecap:round;stroke-linejoin:round;stroke-miterlimit:10;}
	.st55{fill:#9CD7FF;}
	.st56{fill:#F7C86C;}
	.st57{opacity:0.3;stroke:#000000;stroke-linecap:round;stroke-linejoin:round;stroke-miterlimit:10;}
	.st58{opacity:0.1;stroke:#000000;stroke-linecap:round;stroke-linejoin:round;stroke-miterlimit:10;}
	.st59{opacity:0.3;fill:#006A2F;}
	.st60{stroke:#000000;stroke-width:1.0825;stroke-linecap:round;stroke-linejoin:round;stroke-miterlimit:10;}
	.st61{fill:#D0E6FB;stroke:#000000;stroke-width:1.0825;stroke-linecap:round;stroke-linejoin:round;stroke-miterlimit:10;}
	.st62{fill:#6FBBF7;stroke:#000000;stroke-width:1.0825;stroke-linecap:round;stroke-linejoin:round;stroke-miterlimit:10;}
	.st63{fill:none;stroke:#000000;stroke-width:1.0825;stroke-linecap:round;stroke-linejoin:round;stroke-miterlimit:10;}
	.st64{fill:#CAF3BB;stroke:#000000;stroke-width:0.7876;stroke-linecap:round;stroke-linejoin:round;stroke-miterlimit:10;}
	.st65{fill:#6FBBF7;stroke:#FFFFFF;stroke-linecap:round;stroke-linejoin:round;stroke-miterlimit:10;}
	.st66{opacity:0.2;}
	.st67{stroke:#E8E9FE;stroke-linecap:round;stroke-linejoin:round;stroke-miterlimit:10;}
	.st68{fill:#FCD4CA;}
	.st69{fill:#FBECCF;}
	.st70{opacity:0.1;fill:#F12A00;}
	.st71{opacity:0.5;stroke:#000000;stroke-linecap:round;stroke-linejoin:round;stroke-miterlimit:10;}
	.st72{fill:#6FBBF7;stroke:#E8E9FE;stroke-linecap:round;stroke-linejoin:round;stroke-miterlimit:10;}
	.st73{opacity:0.5;fill:#D0E6FB;}
	.st74{fill:#70BAF7;}
	.st75{fill:none;stroke:#FFFFFF;stroke-linecap:round;stroke-linejoin:round;stroke-miterlimit:10;}
	.st76{fill:#70BAF7;stroke:#70BAF7;stroke-linecap:round;stroke-linejoin:round;stroke-miterlimit:10;}
	.st77{fill:#018BEE;stroke:#018BEE;stroke-linecap:round;stroke-linejoin:round;stroke-miterlimit:10;}
	.st78{fill:#70BAF7;stroke:#000000;stroke-linecap:round;stroke-linejoin:round;stroke-miterlimit:10;}
	.st79{fill:#F9CD6C;stroke:#000000;stroke-linecap:round;stroke-linejoin:round;stroke-miterlimit:10;}
	.st80{fill:none;}
	.st81{fill:#006A2F;stroke:#006A2F;stroke-miterlimit:10;}
	.st82{fill:#B4DFFC;}
	.st83{fill:#6FBBF7;stroke:#018BEE;stroke-linecap:round;stroke-linejoin:round;stroke-miterlimit:10;}
	.st84{fill:none;stroke:#FBECCF;stroke-linecap:round;stroke-linejoin:round;stroke-miterlimit:10;}
	.st85{fill:none;stroke:#018BEE;stroke-linecap:round;stroke-linejoin:round;stroke-miterlimit:10;}
	.st86{fill:#010101;stroke:#FFFFFF;stroke-linecap:round;stroke-linejoin:round;stroke-miterlimit:10;}
	.st87{fill:#010101;stroke:#000000;stroke-linecap:round;stroke-linejoin:round;stroke-miterlimit:10;}
	.st88{fill:#75D95D;stroke:#FFFFFF;stroke-linecap:round;stroke-linejoin:round;stroke-miterlimit:10;}
	.st89{fill:#94F279;stroke:#000000;stroke-linecap:round;stroke-linejoin:round;stroke-miterlimit:10;}
	.st90{fill:#8C8CF9;}
	.st91{fill:#008FF5;}
	.st92{fill:#8CD8F9;}
	.st93{fill:#FFC043;}
	.st94{fill:#94F279;}
	.st95{fill:#FF3D1D;}
	.st96{fill:#31B1FF;}
	.st97{fill:#FFCF7B;}
	.st98{fill:#B2FF99;}
	.st99{fill:#D7D7FF;}
	.st100{fill:#FF7C6E;}
	.st101{fill:#5CC9FF;}
	.st102{fill:#F12A00;stroke:#FFFFFF;stroke-linecap:round;stroke-linejoin:round;stroke-miterlimit:10;}
	.st103{fill:#F7C86C;stroke:#000000;stroke-width:1.0164;stroke-miterlimit:10;}
</style><g id="Refrences" class="st0"/><g id="Tittle"/><g id="Icons"><g><g><path class="st18" d="M69.82,62.07c3.51-6.77,10.1-10.34,14.71-7.95l3.32,1.72c-4.62-2.39-11.21,1.18-14.71,7.95     c-3.52,6.79-2.62,14.23,1.99,16.62l-3.32-1.72C67.2,76.31,66.31,68.86,69.82,62.07z"/><path d="M76.81,58.82c3.46-3.35,7.75-4.68,11.04-2.98l-3.32-1.72c-3.29-1.7-7.58-0.37-11.04,2.98L76.81,58.82z"/><path class="st20" d="M69.82,62.07c3.51-6.77,10.1-10.34,14.71-7.95l3.32,1.72c-4.62-2.39-11.21,1.18-14.71,7.95     c-3.52,6.79-2.62,14.23,1.99,16.62l-3.32-1.72C67.2,76.31,66.31,68.86,69.82,62.07z"/><ellipse transform="matrix(0.4597 -0.888 0.888 0.4597 -16.4712 109.1802)" class="st21" cx="81.5" cy="68.13" rx="13.84" ry="9.41"/><ellipse transform="matrix(0.4597 -0.888 0.888 0.4597 -16.4712 109.1802)" class="st19" cx="81.5" cy="68.13" rx="11.07" ry="7.52"/><path class="st18" d="M74.83,64.66c1.67-3.22,4.19-5.53,6.73-6.46c-1.7,1.2-3.25,2.99-4.39,5.2c-2.82,5.44-2.11,11.38,1.58,13.29     c1.51,0.78,3.3,0.77,5.07,0.08c-2.45,1.78-5.21,2.33-7.41,1.19C72.72,76.04,72.01,70.11,74.83,64.66z"/><ellipse transform="matrix(0.4597 -0.888 0.888 0.4597 -16.4712 109.1802)" class="st20" cx="81.5" cy="68.13" rx="11.07" ry="7.52"/><g><path d="M85.02,61.84l-0.61,1.18c0.36,0.28,0.62,0.58,0.77,0.9c0.15,0.32,0.21,0.74,0.17,1.25c-0.04,0.52-0.2,1.09-0.48,1.71      l-0.92-0.19c0.27-0.66,0.4-1.19,0.39-1.56c-0.01-0.54-0.16-0.91-0.45-1.12l-1.94,3.75c0.28,0.26,0.52,0.62,0.72,1.08      c0.15,0.34,0.19,0.73,0.14,1.17c-0.05,0.44-0.2,0.9-0.45,1.37c-0.43,0.84-0.99,1.41-1.66,1.72c-0.45,0.21-0.96,0.22-1.53,0.02      l-0.78,1.51l-0.47-0.24l0.78-1.51c-0.43-0.31-0.7-0.7-0.8-1.17c-0.13-0.61-0.04-1.3,0.28-2.09l0.92,0.25      c-0.19,0.49-0.28,0.89-0.25,1.22c0.02,0.32,0.14,0.59,0.36,0.81l1.76-3.39c-0.33-0.36-0.53-0.61-0.62-0.76      c-0.17-0.29-0.27-0.59-0.3-0.9c-0.04-0.31-0.02-0.65,0.06-1.01c0.08-0.36,0.22-0.73,0.41-1.1c0.42-0.82,0.95-1.4,1.59-1.77      c0.63-0.36,1.24-0.42,1.82-0.17l0.62-1.19L85.02,61.84z M79.69,72.15c0.35,0.09,0.69,0.04,1.02-0.17      c0.33-0.2,0.6-0.51,0.81-0.91c0.21-0.4,0.31-0.78,0.29-1.13c-0.01-0.35-0.16-0.7-0.44-1.05L79.69,72.15z M83.43,63.77      c-0.34-0.1-0.7-0.04-1.08,0.2c-0.38,0.23-0.7,0.6-0.96,1.1c-0.22,0.43-0.33,0.81-0.32,1.14c0.01,0.33,0.18,0.71,0.5,1.14      L83.43,63.77z"/></g><path class="st18" d="M35.75,79.38c-6.14-8.56-6.56-18.79-0.93-22.83l4.05-2.9c-5.63,4.04-5.21,14.27,0.93,22.83     c6.16,8.59,15.71,12.27,21.34,8.23l-4.05,2.9C51.46,91.65,41.91,87.97,35.75,79.38z"/><path d="M35.95,68.87c-2.01-6.32-1.09-12.34,2.92-15.22l-4.05,2.9c-4.01,2.88-4.94,8.9-2.92,15.22L35.95,68.87z"/><path class="st19" d="M48.39,84.26l-4.05,2.9c4.61,2.51,9.38,2.87,12.75,0.45l4.05-2.9C57.77,87.13,53,86.77,48.39,84.26z"/><path class="st20" d="M35.75,79.38c-6.14-8.56-6.56-18.79-0.93-22.83l4.05-2.9c-5.63,4.04-5.21,14.27,0.93,22.83     c6.16,8.59,15.71,12.27,21.34,8.23l-4.05,2.9C51.46,91.65,41.91,87.97,35.75,79.38z"/><ellipse transform="matrix(0.8127 -0.5827 0.5827 0.8127 -30.9418 42.0967)" class="st21" cx="50.01" cy="69.18" rx="12.54" ry="19.12"/><ellipse transform="matrix(0.8127 -0.5827 0.5827 0.8127 -30.9418 42.0967)" class="st19" cx="50.01" cy="69.18" rx="10.03" ry="15.29"/><path class="st18" d="M41.86,75.01c-2.92-4.07-4.22-8.59-3.86-12.25c0.45,2.82,1.71,5.83,3.71,8.62     c4.94,6.88,12.56,9.82,17.06,6.6c1.85-1.32,2.89-3.49,3.1-6.07c0.7,4.09-0.26,7.77-2.95,9.7C54.41,84.83,46.79,81.89,41.86,75.01     z"/><ellipse transform="matrix(0.8127 -0.5827 0.5827 0.8127 -30.9418 42.0967)" class="st20" cx="50.01" cy="69.18" rx="10.03" ry="15.29"/><g><path d="M44.47,60.9l1.07,1.49c0.56-0.26,1.07-0.37,1.55-0.35s1.02,0.22,1.62,0.59c0.61,0.38,1.2,0.94,1.79,1.68l-0.78,0.98      c-0.65-0.74-1.2-1.24-1.66-1.47c-0.65-0.33-1.19-0.39-1.62-0.18l3.4,4.74c0.48-0.17,1.06-0.23,1.74-0.17      c0.5,0.04,1,0.24,1.51,0.58s0.97,0.82,1.4,1.41c0.76,1.06,1.13,2.09,1.11,3.1c-0.01,0.68-0.31,1.3-0.88,1.86l1.37,1.91      l-0.57,0.41l-1.37-1.91c-0.63,0.32-1.26,0.39-1.9,0.21c-0.81-0.23-1.6-0.79-2.36-1.67l0.84-0.95c0.48,0.54,0.92,0.9,1.32,1.08      c0.41,0.18,0.8,0.21,1.19,0.08l-3.08-4.29c-0.63,0.17-1.06,0.25-1.29,0.26c-0.45,0.01-0.88-0.06-1.28-0.21      c-0.4-0.15-0.8-0.4-1.19-0.72c-0.39-0.33-0.76-0.73-1.09-1.2c-0.74-1.03-1.14-2.04-1.2-3.04c-0.06-1,0.23-1.77,0.88-2.31      l-1.08-1.5L44.47,60.9z M53.81,73.93c0.32-0.36,0.45-0.81,0.4-1.34c-0.05-0.53-0.26-1.05-0.63-1.57      c-0.36-0.51-0.76-0.86-1.19-1.07c-0.43-0.21-0.94-0.25-1.53-0.14L53.81,73.93z M45.86,64.06c-0.33,0.34-0.46,0.82-0.4,1.43      s0.32,1.23,0.77,1.86c0.39,0.54,0.79,0.91,1.2,1.11s0.97,0.24,1.68,0.13L45.86,64.06z"/></g></g><g><g><g><g><g><g><g><g><g><g><g><circle class="st5" cx="33.94" cy="31.64" r="3.73"/></g></g></g></g><g><g><g><g><g><g><g><g><g><path class="st5" d="M42.81,28.66c-0.09-0.47-0.51-0.8-0.98-0.79l-0.13,0c-0.34,0-0.67-0.17-0.84-0.46                    c-0.13-0.21-0.27-0.42-0.43-0.62c-0.22-0.28-0.26-0.65-0.12-0.98l0.06-0.14c0.19-0.44,0.03-0.95-0.36-1.21                    l-0.59-0.39c-0.4-0.26-0.92-0.21-1.25,0.13l-0.11,0.11c-0.25,0.25-0.61,0.36-0.95,0.26                    c-0.24-0.07-0.49-0.12-0.73-0.16c-0.34-0.05-0.62-0.28-0.75-0.6l-0.05-0.12c-0.18-0.44-0.64-0.69-1.11-0.6                    l-0.69,0.14c-0.47,0.09-0.8,0.5-0.8,0.98l0,0.14c0,0.35-0.19,0.65-0.47,0.84l2.27,11.32                    c0.34,0.07,0.63,0.28,0.76,0.6l0.05,0.13c0.18,0.44,0.64,0.69,1.11,0.6l0.69-0.14c0.47-0.09,0.8-0.51,0.79-0.98                    l0-0.13c0-0.36,0.2-0.69,0.51-0.88c0.17-0.11,0.34-0.22,0.51-0.35c0.3-0.23,0.68-0.31,1.03-0.16l0.14,0.06                    c0.44,0.19,0.95,0.03,1.21-0.36l0.39-0.59c0.26-0.4,0.21-0.92-0.13-1.25l-0.11-0.11                    c-0.27-0.26-0.35-0.65-0.25-1.01c0.05-0.2,0.1-0.4,0.13-0.61c0.06-0.36,0.27-0.67,0.61-0.81l0.13-0.05                    c0.44-0.18,0.69-0.65,0.6-1.11L42.81,28.66z"/></g></g></g></g></g><g><g><g><g><g><path class="st7" d="M38.22,35.55c-0.16,0.13-0.33,0.24-0.51,0.35c-0.31,0.19-0.52,0.51-0.51,0.88l0,0.13                    c0.01,0.48-0.33,0.89-0.79,0.98l-0.69,0.14c-0.47,0.09-0.93-0.16-1.11-0.6l-0.05-0.13                    c-0.14-0.34-0.45-0.55-0.81-0.61c-0.2-0.03-0.4-0.07-0.6-0.13c-0.36-0.1-0.75-0.02-1.01,0.25l-0.11,0.11                    c-0.33,0.34-0.86,0.4-1.25,0.13l-0.59-0.39c-0.4-0.26-0.55-0.77-0.36-1.21l0.06-0.14c0.14-0.33,0.1-0.7-0.12-0.98                    c-0.16-0.2-0.3-0.4-0.43-0.61c-0.18-0.29-0.5-0.46-0.84-0.46l-0.13,0c-0.48,0.01-0.89-0.33-0.98-0.79l-0.14-0.69                    c-0.09-0.47,0.16-0.93,0.6-1.11l0.12-0.05c0.34-0.14,0.56-0.45,0.61-0.81c0.03-0.2,0.07-0.4,0.13-0.6                    c0.1-0.36,0.02-0.75-0.25-1.01l-0.11-0.11c-0.34-0.33-0.4-0.86-0.13-1.25l0.39-0.59c0.26-0.4,0.77-0.55,1.21-0.36                    l0.14,0.06c0.35,0.15,0.73,0.07,1.03-0.16c0.16-0.13,0.33-0.24,0.51-0.35c0.31-0.19,0.52-0.51,0.51-0.88l0-0.14                    c0-0.48,0.33-0.89,0.8-0.98l0.69-0.14c0.47-0.09,0.93,0.16,1.11,0.6l0.05,0.12c0.13,0.32,0.41,0.55,0.75,0.6                    c0.25,0.04,0.49,0.09,0.73,0.16c0.34,0.1,0.71-0.01,0.95-0.26l0.11-0.11c0.33-0.34,0.86-0.4,1.25-0.13l0.59,0.39                    c0.4,0.26,0.55,0.77,0.36,1.21l-0.06,0.14c-0.14,0.33-0.1,0.7,0.12,0.98c0.16,0.2,0.3,0.4,0.43,0.62                    c0.18,0.29,0.5,0.46,0.84,0.46l0.13,0c0.47-0.01,0.89,0.33,0.98,0.79l0.14,0.69c0.09,0.47-0.16,0.93-0.6,1.11                    l-0.13,0.05c-0.34,0.14-0.55,0.45-0.61,0.81c-0.03,0.2-0.07,0.41-0.13,0.61c-0.1,0.36-0.02,0.75,0.25,1.01                    l0.11,0.11c0.34,0.33,0.4,0.86,0.13,1.25l-0.39,0.59c-0.26,0.4-0.77,0.55-1.21,0.36l-0.14-0.06                    C38.9,35.25,38.51,35.32,38.22,35.55z"/></g></g></g></g></g><circle class="st25" cx="34.59" cy="30.66" r="3.73"/></g></g></g></g></g></g></g></g></g></g></g><g><g><g><g><g><g><g><g><g><g><g><circle class="st5" cx="12.55" cy="21.87" r="4.75"/></g></g></g></g><g><g><g><g><g><g><g><g><g><path class="st5" d="M23.86,18.06c-0.12-0.59-0.65-1.02-1.25-1.01l-0.17,0c-0.44,0.01-0.85-0.21-1.08-0.59                    c-0.16-0.27-0.34-0.53-0.54-0.78c-0.28-0.35-0.33-0.83-0.16-1.25l0.08-0.18c0.24-0.56,0.04-1.2-0.46-1.54                    l-0.75-0.5c-0.5-0.34-1.18-0.27-1.6,0.17l-0.14,0.14c-0.31,0.32-0.78,0.46-1.21,0.34                    c-0.31-0.09-0.62-0.15-0.93-0.2c-0.43-0.06-0.79-0.36-0.96-0.77l-0.06-0.16c-0.23-0.56-0.82-0.88-1.41-0.77                    l-0.88,0.17c-0.59,0.12-1.02,0.64-1.01,1.25l0,0.18c0,0.44-0.24,0.83-0.6,1.07l2.9,14.43                    c0.43,0.09,0.8,0.35,0.97,0.76l0.07,0.17c0.23,0.56,0.82,0.88,1.42,0.76l0.89-0.18c0.59-0.12,1.02-0.65,1.01-1.25                    l0-0.17c-0.01-0.46,0.26-0.88,0.65-1.12c0.22-0.14,0.44-0.29,0.65-0.45c0.38-0.29,0.87-0.39,1.31-0.2l0.18,0.08                    c0.56,0.24,1.2,0.04,1.54-0.46l0.5-0.76c0.34-0.5,0.27-1.18-0.17-1.6l-0.14-0.14c-0.34-0.33-0.44-0.83-0.32-1.29                    c0.07-0.26,0.12-0.51,0.16-0.77c0.07-0.46,0.35-0.86,0.78-1.03l0.17-0.07c0.56-0.23,0.88-0.82,0.76-1.42                    L23.86,18.06z"/></g></g></g></g></g><g><g><g><g><g><path class="st39" d="M18,26.86c-0.21,0.16-0.43,0.31-0.65,0.45c-0.4,0.24-0.66,0.65-0.65,1.12l0,0.17                    c0.01,0.61-0.42,1.13-1.01,1.25l-0.89,0.18c-0.59,0.12-1.19-0.2-1.42-0.76l-0.07-0.17                    c-0.18-0.43-0.58-0.71-1.04-0.78c-0.26-0.04-0.51-0.1-0.77-0.16c-0.46-0.12-0.96-0.03-1.29,0.32l-0.14,0.14                    c-0.42,0.43-1.1,0.5-1.6,0.17l-0.75-0.5c-0.5-0.34-0.7-0.98-0.46-1.54l0.08-0.18c0.18-0.42,0.12-0.9-0.16-1.25                    c-0.2-0.25-0.38-0.51-0.55-0.78c-0.22-0.37-0.64-0.59-1.07-0.58l-0.17,0c-0.61,0.01-1.13-0.42-1.25-1.01                    l-0.18-0.88c-0.12-0.59,0.2-1.19,0.76-1.42l0.16-0.06c0.43-0.17,0.71-0.58,0.78-1.04                    c0.04-0.26,0.1-0.51,0.16-0.77c0.12-0.46,0.03-0.96-0.32-1.29l-0.14-0.14c-0.43-0.42-0.5-1.1-0.17-1.6l0.5-0.76                    c0.34-0.5,0.98-0.7,1.54-0.46l0.18,0.08c0.44,0.19,0.93,0.09,1.31-0.21c0.21-0.16,0.42-0.31,0.64-0.45                    c0.4-0.24,0.66-0.65,0.66-1.12l0-0.18c-0.01-0.61,0.42-1.13,1.01-1.25l0.88-0.17c0.59-0.12,1.19,0.2,1.41,0.77                    l0.06,0.16c0.16,0.41,0.52,0.71,0.96,0.77c0.31,0.05,0.63,0.11,0.93,0.2c0.43,0.12,0.9-0.01,1.21-0.34l0.14-0.14                    c0.42-0.43,1.1-0.5,1.6-0.17l0.75,0.5c0.5,0.34,0.7,0.98,0.46,1.54l-0.08,0.18c-0.18,0.41-0.12,0.9,0.16,1.25                    c0.2,0.25,0.38,0.51,0.54,0.78c0.22,0.37,0.64,0.59,1.08,0.59l0.17,0c0.61-0.01,1.13,0.42,1.25,1.01l0.18,0.88                    c0.12,0.59-0.2,1.19-0.76,1.42l-0.17,0.07c-0.43,0.17-0.71,0.57-0.78,1.03c-0.04,0.26-0.1,0.52-0.16,0.77                    c-0.12,0.46-0.02,0.95,0.32,1.29l0.14,0.14c0.43,0.42,0.5,1.1,0.17,1.6l-0.5,0.76c-0.34,0.5-0.98,0.7-1.54,0.46                    l-0.18-0.08C18.87,26.47,18.38,26.56,18,26.86z"/></g></g></g></g></g><circle class="st25" cx="13.38" cy="20.62" r="4.75"/></g></g></g></g></g></g></g></g></g></g></g><g><g><g><g><g><g><g><g><g><g><g><circle class="st5" cx="13.97" cy="57.61" r="6.62"/></g></g></g></g><g><g><g><g><g><g><g><g><g><path class="st5" d="M29.72,52.31c-0.17-0.83-0.9-1.42-1.74-1.41l-0.24,0c-0.61,0.01-1.19-0.29-1.5-0.82                    c-0.23-0.38-0.48-0.74-0.76-1.09c-0.39-0.49-0.47-1.16-0.22-1.74l0.11-0.25c0.33-0.78,0.06-1.68-0.64-2.14                    l-1.04-0.69c-0.7-0.47-1.64-0.37-2.23,0.23l-0.19,0.19c-0.44,0.45-1.09,0.64-1.69,0.47                    c-0.43-0.12-0.86-0.21-1.3-0.28c-0.6-0.09-1.1-0.5-1.33-1.07l-0.09-0.22c-0.32-0.78-1.14-1.23-1.97-1.07                    l-1.22,0.24c-0.83,0.16-1.42,0.9-1.41,1.74l0,0.25c0.01,0.61-0.33,1.15-0.83,1.5l4.03,20.1                    c0.6,0.12,1.12,0.49,1.35,1.06l0.09,0.23c0.32,0.78,1.14,1.23,1.97,1.06l1.23-0.25c0.83-0.17,1.42-0.9,1.41-1.74                    l0-0.24c-0.01-0.65,0.36-1.22,0.91-1.56c0.31-0.19,0.61-0.4,0.9-0.62c0.53-0.41,1.21-0.54,1.83-0.28l0.25,0.11                    c0.78,0.33,1.68,0.06,2.14-0.64l0.7-1.05c0.47-0.7,0.37-1.64-0.23-2.23l-0.2-0.19c-0.48-0.47-0.61-1.15-0.44-1.79                    c0.09-0.36,0.17-0.72,0.23-1.08c0.1-0.64,0.49-1.19,1.08-1.44l0.23-0.1c0.78-0.32,1.23-1.15,1.06-1.97                    L29.72,52.31z"/></g></g></g></g></g><g><g><g><g><g><path class="st32" d="M21.56,64.55c-0.29,0.22-0.59,0.43-0.9,0.62c-0.55,0.34-0.92,0.91-0.91,1.56l0,0.24                    c0.01,0.84-0.58,1.58-1.41,1.74l-1.23,0.25c-0.83,0.17-1.65-0.28-1.97-1.06l-0.09-0.23                    c-0.24-0.6-0.8-0.98-1.44-1.08c-0.36-0.06-0.72-0.13-1.07-0.23c-0.64-0.17-1.33-0.04-1.8,0.44l-0.19,0.2                    c-0.59,0.6-1.52,0.7-2.23,0.23l-1.04-0.69c-0.7-0.47-0.97-1.37-0.64-2.14l0.11-0.25                    c0.24-0.58,0.17-1.25-0.22-1.74c-0.28-0.35-0.53-0.71-0.76-1.09c-0.31-0.52-0.89-0.82-1.5-0.81l-0.24,0                    c-0.84,0.01-1.58-0.58-1.74-1.41l-0.25-1.23c-0.17-0.83,0.28-1.66,1.06-1.97l0.22-0.09                    c0.6-0.24,0.99-0.8,1.09-1.45c0.06-0.36,0.13-0.71,0.23-1.07c0.17-0.64,0.04-1.33-0.44-1.8l-0.2-0.19                    c-0.6-0.59-0.7-1.52-0.23-2.23l0.7-1.05c0.47-0.7,1.37-0.97,2.14-0.64l0.25,0.11c0.61,0.26,1.3,0.12,1.83-0.29                    c0.29-0.22,0.59-0.43,0.9-0.62c0.55-0.34,0.92-0.91,0.91-1.56l0-0.25c-0.01-0.84,0.58-1.58,1.41-1.74l1.22-0.24                    c0.83-0.16,1.65,0.28,1.97,1.07l0.09,0.22c0.23,0.56,0.73,0.98,1.33,1.07c0.44,0.06,0.87,0.16,1.3,0.28                    c0.6,0.17,1.25-0.02,1.69-0.47l0.19-0.19c0.59-0.6,1.52-0.7,2.23-0.23l1.04,0.69c0.7,0.47,0.97,1.37,0.64,2.14                    l-0.11,0.25c-0.24,0.58-0.17,1.25,0.22,1.74c0.28,0.35,0.53,0.71,0.76,1.09c0.31,0.52,0.89,0.82,1.5,0.82l0.24,0                    c0.84-0.01,1.57,0.58,1.74,1.41l0.25,1.22c0.17,0.83-0.28,1.66-1.06,1.97l-0.23,0.1c-0.6,0.24-0.98,0.8-1.08,1.44                    c-0.06,0.36-0.13,0.72-0.23,1.08c-0.17,0.64-0.03,1.33,0.44,1.79l0.2,0.19c0.6,0.59,0.7,1.52,0.23,2.23l-0.7,1.05                    c-0.47,0.7-1.37,0.97-2.14,0.64l-0.25-0.11C22.77,64.01,22.09,64.14,21.56,64.55z"/></g></g></g></g></g><circle class="st25" cx="15.13" cy="55.87" r="6.62"/></g></g></g></g></g></g></g></g></g></g></g><g><path class="st5" d="M46.94,22.14L32.88,11.22c-1.18-0.91-1.39-2.61-0.47-3.78l0,0c0.91-1.18,2.61-1.39,3.78-0.47L52.9,19.95     L46.94,22.14z"/><path class="st50" d="M46.96,20.5L32.9,9.58c-1.18-0.91-1.39-2.61-0.47-3.78l0,0c0.91-1.18,2.61-1.39,3.78-0.47l16.71,12.98     L46.96,20.5z"/><path class="st69" d="M52.89,18.27c-2.08-0.92-4.02-1.52-5.7-1.91L36.18,7.8c-0.49-0.37-1.05-0.56-1.62-0.56     c-0.81-0.01-1.63,0.35-2.17,1.04c-0.1,0.13-0.18,0.25-0.24,0.38c-0.45-0.9-0.37-2.01,0.28-2.87c0.54-0.69,1.34-1.05,2.15-1.04     c0.57,0.01,1.15,0.21,1.64,0.58L52.89,18.27z"/><path class="st11" d="M46.96,20.5L32.9,9.58c-1.18-0.91-1.39-2.61-0.47-3.78l0,0c0.91-1.18,2.61-1.39,3.78-0.47l16.71,12.98     L46.96,20.5z"/><path class="st5" d="M61.61,44.92c-5.72,2.56-12.27,1.58-12.27,1.58l-18.83-0.25c-1.49-0.02-2.68-1.24-2.66-2.73l0.01-0.41     c0.02-1.49,1.24-2.68,2.73-2.66l7.62,0.1c4.93,0.06,8.98-3.88,9.05-8.81l0,0c0.06-4.93-3.88-8.98-8.81-9.05l-7.62-0.1     c-1.49-0.02-2.68-1.24-2.66-2.73v0c0.02-1.49,1.24-2.68,2.73-2.66l9.6,0.12c0,0,9.77-1.01,20.5,7.57     c1.95,1.56,4.33,2.49,6.83,2.53h0L67.61,43.9l-1.25-0.02C64.72,43.86,63.1,44.25,61.61,44.92z"/><path class="st5" d="M71.77,46.93l-2.94-0.04c-0.7-0.01-1.25-0.58-1.24-1.28l0.26-19.68c0.01-0.7,0.58-1.25,1.28-1.24l2.94,0.04     c0.7,0.01,1.25,0.58,1.24,1.28l-0.26,19.68C73.04,46.39,72.47,46.94,71.77,46.93z"/><path class="st5" d="M85.66,48.38l-11.38-0.15c-0.7-0.01-1.25-0.58-1.24-1.28l0.29-22.2c0.01-0.7,0.58-1.25,1.28-1.24l11.38,0.15     c0.7,0.01,1.25,0.58,1.24,1.28l-0.29,22.2C86.93,47.83,86.36,48.39,85.66,48.38z"/><path class="st50" d="M61.63,43.28c-5.72,2.56-12.27,1.58-12.27,1.58l-18.83-0.25c-1.49-0.02-2.68-1.24-2.66-2.73l0.01-0.41     c0.02-1.49,1.24-2.68,2.73-2.66l7.62,0.1c4.93,0.06,8.98-3.88,9.05-8.81v0c0.06-4.93-3.88-8.98-8.81-9.05l-7.62-0.1     c-1.49-0.02-2.68-1.24-2.66-2.73v0c0.02-1.49,1.24-2.68,2.73-2.66l9.6,0.12c0,0,9.77-1.01,20.5,7.57     c1.95,1.56,4.33,2.49,6.83,2.53v0l-0.21,16.48l-1.25-0.02C64.74,42.22,63.13,42.61,61.63,43.28z"/><path class="st69" d="M67.85,25.79l-0.03,2.47c-2.5-0.03-4.88-0.96-6.84-2.51c-2.81-2.25-5.56-3.85-8.09-4.95     c-0.02-0.02-0.02-0.02-0.03-0.03c-1.14-0.49-2.22-0.91-3.25-1.24c-2.11-0.68-3.96-1.02-5.44-1.2c-1.74-0.21-2.96-0.18-3.44-0.16     c-0.16,0-0.24,0.01-0.24,0.01l-9.62-0.13c-1.04-0.01-1.95,0.56-2.4,1.42c-0.2-0.37-0.31-0.8-0.3-1.25     c0.02-1.5,1.25-2.68,2.73-2.66l9.62,0.13c0,0,0.08-0.01,0.24-0.01c0.72-0.05,3.1-0.1,6.43,0.69c1.69,0.39,3.62,0.99,5.7,1.91     c0.02,0.02,0.02,0.02,0.03,0.03c2.52,1.1,5.28,2.7,8.09,4.95C62.97,24.82,65.35,25.76,67.85,25.79z"/><path class="st11" d="M61.63,43.28c-5.72,2.56-12.27,1.58-12.27,1.58l-18.83-0.25c-1.49-0.02-2.68-1.24-2.66-2.73l0.01-0.41     c0.02-1.49,1.24-2.68,2.73-2.66l7.62,0.1c4.93,0.06,8.98-3.88,9.05-8.81v0c0.06-4.93-3.88-8.98-8.81-9.05l-7.62-0.1     c-1.49-0.02-2.68-1.24-2.66-2.73v0c0.02-1.49,1.24-2.68,2.73-2.66l9.6,0.12c0,0,9.77-1.01,20.5,7.57     c1.95,1.56,4.33,2.49,6.83,2.53v0l-0.21,16.48l-1.25-0.02C64.74,42.22,63.13,42.61,61.63,43.28z"/><path class="st25" d="M71.8,45.29l-2.94-0.04c-0.7-0.01-1.25-0.58-1.24-1.28l0.26-19.68c0.01-0.7,0.58-1.25,1.28-1.24l2.94,0.04     c0.7,0.01,1.25,0.58,1.24,1.28l-0.26,19.68C73.06,44.75,72.49,45.3,71.8,45.29z"/><path class="st26" d="M85.68,46.74L74.3,46.59c-0.7-0.01-1.25-0.58-1.24-1.28l0.29-22.2c0.01-0.7,0.58-1.25,1.28-1.24l11.38,0.15     c0.7,0.01,1.25,0.58,1.24,1.28l-0.29,22.2C86.95,46.19,86.38,46.75,85.68,46.74z"/><path class="st27" d="M87.2,27.2l0.02-1.84c0.02-1.84-0.86-3.34-1.97-3.36l-9.88-0.13c-1.11-0.01-2.03,1.47-2.06,3.31l-0.02,1.84     C77.52,22.95,82.18,23.26,87.2,27.2z"/><path class="st11" d="M85.68,46.74L74.3,46.59c-0.7-0.01-1.25-0.58-1.24-1.28l0.29-22.2c0.01-0.7,0.58-1.25,1.28-1.24l11.38,0.15     c0.7,0.01,1.25,0.58,1.24,1.28l-0.29,22.2C86.95,46.19,86.38,46.75,85.68,46.74z"/></g><circle class="st27" cx="80.13" cy="43.32" r="1.28"/></g></g><g id="Layer_4"/></svg>