<?xml version="1.0" ?><svg xmlns="http://www.w3.org/2000/svg" xmlns:xlink="http://www.w3.org/1999/xlink" version="1.1" viewBox="0 0 94 94" style="enable-background:new 0 0 94 94;" xml:space="preserve"><style type="text/css">
	.st0{display:none;}
	.st1{display:inline;fill:#FEA900;}
	.st2{display:inline;}
	.st3{display:inline;fill:#F9CD6C;}
	.st4{display:inline;fill:none;stroke:#000000;stroke-width:0.25;stroke-miterlimit:10;}
	.st5{stroke:#000000;stroke-linecap:round;stroke-linejoin:round;stroke-miterlimit:10;}
	.st6{opacity:0.2;stroke:#000000;stroke-linecap:round;stroke-linejoin:round;stroke-miterlimit:10;}
	.st7{fill:#F12A00;stroke:#000000;stroke-linecap:round;stroke-linejoin:round;stroke-miterlimit:10;}
	.st8{fill:#FBECCF;stroke:#000000;stroke-linecap:round;stroke-linejoin:round;stroke-miterlimit:10;}
	.st9{opacity:0.2;fill:#F12A00;}
	.st10{fill:#F7C86C;stroke:#000000;stroke-linecap:round;stroke-linejoin:round;stroke-miterlimit:10;}
	.st11{fill:none;stroke:#000000;stroke-linecap:round;stroke-linejoin:round;stroke-miterlimit:10;}
	.st12{display:inline;stroke:#000000;stroke-linecap:round;stroke-linejoin:round;stroke-miterlimit:10;}
	.st13{fill:#FAAC01;stroke:#000000;stroke-linecap:round;stroke-linejoin:round;stroke-miterlimit:10;}
	.st14{fill:#FAAC01;}
	.st15{display:inline;fill:#FAEBCE;stroke:#000000;stroke-width:0.25;stroke-miterlimit:10;}
	.st16{display:inline;fill:none;stroke:#000000;stroke-width:1.0164;stroke-miterlimit:10;}
	.st17{display:inline;fill:#FAEBCE;stroke:#000000;stroke-width:1.0164;stroke-miterlimit:10;}
	.st18{fill:#FEA900;}
	.st19{fill:#F9CD6C;}
	.st20{fill:none;stroke:#000000;stroke-width:1.0164;stroke-miterlimit:10;}
	.st21{fill:#FAEBCE;stroke:#000000;stroke-width:1.0164;stroke-miterlimit:10;}
	.st22{display:inline;fill:#FAEBCE;}
	.st23{fill:#008FF5;stroke:#000000;stroke-linecap:round;stroke-linejoin:round;stroke-miterlimit:10;}
	.st24{fill:#D0E6FB;stroke:#000000;stroke-linecap:round;stroke-linejoin:round;stroke-miterlimit:10;}
	.st25{fill:#FFFFFF;stroke:#000000;stroke-linecap:round;stroke-linejoin:round;stroke-miterlimit:10;}
	.st26{fill:#75D95D;stroke:#000000;stroke-linecap:round;stroke-linejoin:round;stroke-miterlimit:10;}
	.st27{fill:#CAF3BB;}
	.st28{fill:#FFFFFF;}
	.st29{fill:#CAF3BB;stroke:#000000;stroke-linecap:round;stroke-linejoin:round;stroke-miterlimit:10;}
	.st30{display:inline;fill:#D0E6FB;stroke:#000000;stroke-linecap:round;stroke-linejoin:round;stroke-miterlimit:10;}
	.st31{stroke:#FFFFFF;stroke-linecap:round;stroke-linejoin:round;stroke-miterlimit:10;}
	.st32{fill:#B4B2FB;stroke:#000000;stroke-linecap:round;stroke-linejoin:round;stroke-miterlimit:10;}
	.st33{fill:#018BEE;}
	.st34{display:inline;fill:none;stroke:#000000;stroke-linecap:round;stroke-linejoin:round;stroke-miterlimit:10;}
	.st35{fill:#75D95D;}
	.st36{fill:#4949F7;stroke:#000000;stroke-linecap:round;stroke-linejoin:round;stroke-miterlimit:10;}
	.st37{fill:#D0E6FB;}
	.st38{fill:#6FBBF7;stroke:#000000;stroke-linecap:round;stroke-linejoin:round;stroke-miterlimit:10;}
	.st39{fill:#018BEE;stroke:#000000;stroke-linecap:round;stroke-linejoin:round;stroke-miterlimit:10;}
	.st40{fill:#B4B2FB;}
	.st41{fill:#E8E9FE;}
	.st42{fill:#B4B2FB;stroke:#000F24;stroke-miterlimit:10;}
	.st43{stroke:#000000;stroke-miterlimit:10;}
	.st44{fill:#E8E9FE;stroke:#000000;stroke-linecap:round;stroke-linejoin:round;stroke-miterlimit:10;}
	.st45{opacity:0.3;fill:#018BEE;}
	.st46{fill:#6FBBF7;}
	.st47{fill:#FAAC01;stroke:#FFFFFF;stroke-linecap:round;stroke-linejoin:round;stroke-miterlimit:10;}
	.st48{fill:#006A2F;}
	.st49{opacity:0.1;}
	.st50{fill:#FCD4CA;stroke:#000000;stroke-linecap:round;stroke-linejoin:round;stroke-miterlimit:10;}
	.st51{fill:#006A2F;stroke:#000000;stroke-linecap:round;stroke-linejoin:round;stroke-miterlimit:10;}
	.st52{fill:#4949F7;}
	.st53{fill:#F12A00;}
	.st54{fill:#D0E6FB;stroke:#018BEE;stroke-linecap:round;stroke-linejoin:round;stroke-miterlimit:10;}
	.st55{fill:#9CD7FF;}
	.st56{fill:#F7C86C;}
	.st57{opacity:0.3;stroke:#000000;stroke-linecap:round;stroke-linejoin:round;stroke-miterlimit:10;}
	.st58{opacity:0.1;stroke:#000000;stroke-linecap:round;stroke-linejoin:round;stroke-miterlimit:10;}
	.st59{opacity:0.3;fill:#006A2F;}
	.st60{stroke:#000000;stroke-width:1.0825;stroke-linecap:round;stroke-linejoin:round;stroke-miterlimit:10;}
	.st61{fill:#D0E6FB;stroke:#000000;stroke-width:1.0825;stroke-linecap:round;stroke-linejoin:round;stroke-miterlimit:10;}
	.st62{fill:#6FBBF7;stroke:#000000;stroke-width:1.0825;stroke-linecap:round;stroke-linejoin:round;stroke-miterlimit:10;}
	.st63{fill:none;stroke:#000000;stroke-width:1.0825;stroke-linecap:round;stroke-linejoin:round;stroke-miterlimit:10;}
	.st64{fill:#CAF3BB;stroke:#000000;stroke-width:0.7876;stroke-linecap:round;stroke-linejoin:round;stroke-miterlimit:10;}
	.st65{fill:#6FBBF7;stroke:#FFFFFF;stroke-linecap:round;stroke-linejoin:round;stroke-miterlimit:10;}
	.st66{opacity:0.2;}
	.st67{stroke:#E8E9FE;stroke-linecap:round;stroke-linejoin:round;stroke-miterlimit:10;}
	.st68{fill:#FCD4CA;}
	.st69{fill:#FBECCF;}
	.st70{opacity:0.1;fill:#F12A00;}
	.st71{opacity:0.5;stroke:#000000;stroke-linecap:round;stroke-linejoin:round;stroke-miterlimit:10;}
	.st72{fill:#6FBBF7;stroke:#E8E9FE;stroke-linecap:round;stroke-linejoin:round;stroke-miterlimit:10;}
	.st73{opacity:0.5;fill:#D0E6FB;}
	.st74{fill:#70BAF7;}
	.st75{fill:none;stroke:#FFFFFF;stroke-linecap:round;stroke-linejoin:round;stroke-miterlimit:10;}
	.st76{fill:#70BAF7;stroke:#70BAF7;stroke-linecap:round;stroke-linejoin:round;stroke-miterlimit:10;}
	.st77{fill:#018BEE;stroke:#018BEE;stroke-linecap:round;stroke-linejoin:round;stroke-miterlimit:10;}
	.st78{fill:#70BAF7;stroke:#000000;stroke-linecap:round;stroke-linejoin:round;stroke-miterlimit:10;}
	.st79{fill:#F9CD6C;stroke:#000000;stroke-linecap:round;stroke-linejoin:round;stroke-miterlimit:10;}
	.st80{fill:none;}
	.st81{fill:#006A2F;stroke:#006A2F;stroke-miterlimit:10;}
	.st82{fill:#B4DFFC;}
	.st83{fill:#6FBBF7;stroke:#018BEE;stroke-linecap:round;stroke-linejoin:round;stroke-miterlimit:10;}
	.st84{fill:none;stroke:#FBECCF;stroke-linecap:round;stroke-linejoin:round;stroke-miterlimit:10;}
	.st85{fill:none;stroke:#018BEE;stroke-linecap:round;stroke-linejoin:round;stroke-miterlimit:10;}
	.st86{fill:#010101;stroke:#FFFFFF;stroke-linecap:round;stroke-linejoin:round;stroke-miterlimit:10;}
	.st87{fill:#010101;stroke:#000000;stroke-linecap:round;stroke-linejoin:round;stroke-miterlimit:10;}
	.st88{fill:#75D95D;stroke:#FFFFFF;stroke-linecap:round;stroke-linejoin:round;stroke-miterlimit:10;}
	.st89{fill:#94F279;stroke:#000000;stroke-linecap:round;stroke-linejoin:round;stroke-miterlimit:10;}
	.st90{fill:#8C8CF9;}
	.st91{fill:#008FF5;}
	.st92{fill:#8CD8F9;}
	.st93{fill:#FFC043;}
	.st94{fill:#94F279;}
	.st95{fill:#FF3D1D;}
	.st96{fill:#31B1FF;}
	.st97{fill:#FFCF7B;}
	.st98{fill:#B2FF99;}
	.st99{fill:#D7D7FF;}
	.st100{fill:#FF7C6E;}
	.st101{fill:#5CC9FF;}
	.st102{fill:#F12A00;stroke:#FFFFFF;stroke-linecap:round;stroke-linejoin:round;stroke-miterlimit:10;}
	.st103{fill:#F7C86C;stroke:#000000;stroke-width:1.0164;stroke-miterlimit:10;}
</style><g id="Refrences" class="st0"/><g id="Tittle"/><g id="Icons"><g><g><path class="st5" d="M17.51,6.22H6.22C3.89,6.22,2,8.11,2,10.44v73.12c0,2.33,1.89,4.22,4.22,4.22h11.28V6.22z"/><path class="st5" d="M17.51,6.22H6.22C3.89,6.22,2,8.11,2,10.44v73.12c0,2.33,1.89,4.22,4.22,4.22h11.28V6.22z"/></g><g><path class="st24" d="M83.93,87.78h-72.5c-2.33,0-4.22-1.89-4.22-4.22V10.44c0-2.33,1.89-4.22,4.22-4.22h62.02     c2.33,0,4.22,1.89,4.22,4.22v64.41"/><path class="st24" d="M85.09,87.78h-0.52c-3.81,0-6.91-3.09-6.91-6.91V47h12.52c1,0,1.81,0.81,1.81,1.81v32.07     C92,84.69,88.91,87.78,85.09,87.78z"/><path class="st11" d="M83.93,87.78h-72.5c-2.33,0-4.22-1.89-4.22-4.22V10.44c0-2.33,1.89-4.22,4.22-4.22h62.02     c2.33,0,4.22,1.89,4.22,4.22v64.41"/></g><path class="st28" d="M70.32,14.14c-0.26-1.43-1.51-2.52-3.02-2.52H16.81c-1.51,0-2.75,1.09-3.02,2.52H70.32z"/><g><path class="st85" d="M13.74,26.66v2.62c0,1.7,1.38,3.08,3.08,3.08H67.3c1.7,0,3.08-1.38,3.08-3.08v-2.62H13.74z"/><path class="st38" d="M67.11,30.32H17c-1.8,0-3.26-1.46-3.26-3.26V14.42c0-1.8,1.46-3.26,3.26-3.26h50.11     c1.8,0,3.26,1.46,3.26,3.26v12.63C70.37,28.86,68.91,30.32,67.11,30.32z"/><g><path class="st44" d="M29.66,15.34c-0.72,0-1.31,0.59-1.31,1.31v4.72l-3.2-5.38c-0.3-0.51-0.9-0.75-1.47-0.59      c-0.57,0.16-0.96,0.67-0.96,1.26v4.74v4.74c0,0.72,0.59,1.31,1.31,1.31c0.72,0,1.31-0.59,1.31-1.31v-4.72l3.2,5.38      c0.24,0.4,0.67,0.64,1.12,0.64c0.12,0,0.23-0.02,0.35-0.05c0.57-0.16,0.96-0.67,0.96-1.26v-4.74v-4.74      C30.97,15.92,30.39,15.34,29.66,15.34z"/><path class="st44" d="M39.8,22.69c0.72,0,1.31-0.59,1.31-1.31c0-0.72-0.59-1.31-1.31-1.31h-4.32v-2.12h4.32      c0.72,0,1.31-0.59,1.31-1.31c0-0.72-0.59-1.31-1.31-1.31h-5.63c-0.72,0-1.31,0.59-1.31,1.31v4.74v4.74      c0,0.72,0.59,1.31,1.31,1.31h5.63c0.72,0,1.31-0.59,1.31-1.31c0-0.72-0.59-1.31-1.31-1.31h-4.32v-2.12H39.8z"/><path class="st44" d="M49.94,15.34c-0.72,0-1.31,0.59-1.31,1.31v4.74v0.49l-0.43-0.63c-0.24-0.36-0.65-0.57-1.08-0.57      c-0.43,0-0.84,0.21-1.08,0.57l-0.43,0.63v-0.49v-4.74c0-0.72-0.59-1.31-1.31-1.31S43,15.92,43,16.64v4.74v4.74      c0,0.57,0.37,1.08,0.92,1.25c0.13,0.04,0.26,0.06,0.38,0.06c0.43,0,0.83-0.21,1.08-0.57l1.73-2.55l1.73,2.55      c0.32,0.48,0.92,0.68,1.47,0.52c0.55-0.17,0.92-0.68,0.92-1.25v-4.74v-4.74C51.25,15.92,50.66,15.34,49.94,15.34z"/><path class="st44" d="M57.71,20.08h-0.13h-0.14h-0.62c-0.59,0-1.06-0.48-1.06-1.06c0-0.59,0.48-1.06,1.06-1.06h3.26      c0.72,0,1.31-0.59,1.31-1.31c0-0.72-0.59-1.31-1.31-1.31h-3.26c-2.03,0-3.68,1.65-3.68,3.68s1.65,3.68,3.68,3.68h0.62h0.14h0.13      c0.59,0,1.06,0.48,1.06,1.06c0,0.59-0.48,1.06-1.06,1.06h-3.26c-0.72,0-1.31,0.59-1.31,1.31c0,0.72,0.59,1.31,1.31,1.31h3.26      c2.03,0,3.68-1.65,3.68-3.68S59.74,20.08,57.71,20.08z"/></g><path class="st11" d="M67.11,30.32H17c-1.8,0-3.26-1.46-3.26-3.26V14.42c0-1.8,1.46-3.26,3.26-3.26h50.11     c1.8,0,3.26,1.46,3.26,3.26v12.63C70.37,28.86,68.91,30.32,67.11,30.32z"/></g><g><g><g><path class="st5" d="M18.19,66.99h-2.73c-0.38,0-0.69-0.31-0.69-0.69V54.34c0-0.38,0.31-0.69,0.69-0.69h2.73       c0.38,0,0.69,0.31,0.69,0.69V66.3C18.89,66.68,18.58,66.99,18.19,66.99z"/><path class="st5" d="M26.86,66.99h-2.73c-0.38,0-0.69-0.31-0.69-0.69V46.09c0-0.38,0.31-0.69,0.69-0.69h2.73       c0.38,0,0.69,0.31,0.69,0.69V66.3C27.55,66.68,27.24,66.99,26.86,66.99z"/><path class="st5" d="M35.52,66.99h-2.73c-0.38,0-0.69-0.31-0.69-0.69V53.38c0-0.38,0.31-0.69,0.69-0.69h2.73       c0.38,0,0.69,0.31,0.69,0.69V66.3C36.21,66.68,35.9,66.99,35.52,66.99z"/><path class="st5" d="M44.18,66.99h-2.73c-0.38,0-0.69-0.31-0.69-0.69V39.09c0-0.38,0.31-0.69,0.69-0.69h2.73       c0.38,0,0.69,0.31,0.69,0.69V66.3C44.87,66.68,44.56,66.99,44.18,66.99z"/><path class="st29" d="M16.94,66.99h-2.73c-0.38,0-0.69-0.31-0.69-0.69V54.34c0-0.38,0.31-0.69,0.69-0.69h2.73       c0.38,0,0.69,0.31,0.69,0.69V66.3C17.63,66.68,17.32,66.99,16.94,66.99z"/><path class="st50" d="M25.6,66.99h-2.73c-0.38,0-0.69-0.31-0.69-0.69V46.09c0-0.38,0.31-0.69,0.69-0.69h2.73       c0.38,0,0.69,0.31,0.69,0.69V66.3C26.29,66.68,25.98,66.99,25.6,66.99z"/><path class="st29" d="M34.26,66.99h-2.73c-0.38,0-0.69-0.31-0.69-0.69V53.38c0-0.38,0.31-0.69,0.69-0.69h2.73       c0.38,0,0.69,0.31,0.69,0.69V66.3C34.95,66.68,34.64,66.99,34.26,66.99z"/><path class="st10" d="M42.92,66.99h-2.73c-0.38,0-0.69-0.31-0.69-0.69V39.09c0-0.38,0.31-0.69,0.69-0.69h2.73       c0.38,0,0.69,0.31,0.69,0.69V66.3C43.61,66.68,43.3,66.99,42.92,66.99z"/></g></g><g><path class="st40" d="M68.77,75.58H15.12c-0.88,0-1.6-0.72-1.6-1.6l0,0c0-0.88,0.72-1.6,1.6-1.6h53.66c0.88,0,1.6,0.72,1.6,1.6      l0,0C70.37,74.86,69.66,75.58,68.77,75.58z"/><path class="st40" d="M68.77,81.87H15.12c-0.88,0-1.6-0.72-1.6-1.6l0,0c0-0.88,0.72-1.6,1.6-1.6h53.66c0.88,0,1.6,0.72,1.6,1.6      l0,0C70.37,81.15,69.66,81.87,68.77,81.87z"/></g><g><path class="st40" d="M68.72,47.03H51.2c-0.88,0-1.6-0.72-1.6-1.6v0c0-0.88,0.72-1.6,1.6-1.6h17.52c0.88,0,1.6,0.72,1.6,1.6v0      C70.32,46.31,69.6,47.03,68.72,47.03z"/><path class="st40" d="M68.72,53.32H51.2c-0.88,0-1.6-0.72-1.6-1.6v0c0-0.88,0.72-1.6,1.6-1.6h17.52c0.88,0,1.6,0.72,1.6,1.6v0      C70.32,52.6,69.6,53.32,68.72,53.32z"/></g><g><path class="st40" d="M68.72,60.15H51.2c-0.88,0-1.6-0.72-1.6-1.6l0,0c0-0.88,0.72-1.6,1.6-1.6h17.52c0.88,0,1.6,0.72,1.6,1.6      l0,0C70.32,59.43,69.6,60.15,68.72,60.15z"/><path class="st40" d="M68.72,66.44H51.2c-0.88,0-1.6-0.72-1.6-1.6l0,0c0-0.88,0.72-1.6,1.6-1.6h17.52c0.88,0,1.6,0.72,1.6,1.6      l0,0C70.32,65.72,69.6,66.44,68.72,66.44z"/></g></g></g></g><g id="Layer_4"/></svg>