<?xml version="1.0" ?><svg xmlns="http://www.w3.org/2000/svg" xmlns:xlink="http://www.w3.org/1999/xlink" version="1.1" viewBox="0 0 94 94" style="enable-background:new 0 0 94 94;" xml:space="preserve"><style type="text/css">
	.st0{display:none;}
	.st1{display:inline;fill:#FEA900;}
	.st2{display:inline;}
	.st3{display:inline;fill:#F9CD6C;}
	.st4{display:inline;fill:none;stroke:#000000;stroke-width:0.25;stroke-miterlimit:10;}
	.st5{stroke:#000000;stroke-linecap:round;stroke-linejoin:round;stroke-miterlimit:10;}
	.st6{opacity:0.2;stroke:#000000;stroke-linecap:round;stroke-linejoin:round;stroke-miterlimit:10;}
	.st7{fill:#F12A00;stroke:#000000;stroke-linecap:round;stroke-linejoin:round;stroke-miterlimit:10;}
	.st8{fill:#FBECCF;stroke:#000000;stroke-linecap:round;stroke-linejoin:round;stroke-miterlimit:10;}
	.st9{opacity:0.2;fill:#F12A00;}
	.st10{fill:#F7C86C;stroke:#000000;stroke-linecap:round;stroke-linejoin:round;stroke-miterlimit:10;}
	.st11{fill:none;stroke:#000000;stroke-linecap:round;stroke-linejoin:round;stroke-miterlimit:10;}
	.st12{display:inline;stroke:#000000;stroke-linecap:round;stroke-linejoin:round;stroke-miterlimit:10;}
	.st13{fill:#FAAC01;stroke:#000000;stroke-linecap:round;stroke-linejoin:round;stroke-miterlimit:10;}
	.st14{fill:#FAAC01;}
	.st15{display:inline;fill:#FAEBCE;stroke:#000000;stroke-width:0.25;stroke-miterlimit:10;}
	.st16{display:inline;fill:none;stroke:#000000;stroke-width:1.0164;stroke-miterlimit:10;}
	.st17{display:inline;fill:#FAEBCE;stroke:#000000;stroke-width:1.0164;stroke-miterlimit:10;}
	.st18{fill:#FEA900;}
	.st19{fill:#F9CD6C;}
	.st20{fill:none;stroke:#000000;stroke-width:1.0164;stroke-miterlimit:10;}
	.st21{fill:#FAEBCE;stroke:#000000;stroke-width:1.0164;stroke-miterlimit:10;}
	.st22{display:inline;fill:#FAEBCE;}
	.st23{fill:#008FF5;stroke:#000000;stroke-linecap:round;stroke-linejoin:round;stroke-miterlimit:10;}
	.st24{fill:#D0E6FB;stroke:#000000;stroke-linecap:round;stroke-linejoin:round;stroke-miterlimit:10;}
	.st25{fill:#FFFFFF;stroke:#000000;stroke-linecap:round;stroke-linejoin:round;stroke-miterlimit:10;}
	.st26{fill:#75D95D;stroke:#000000;stroke-linecap:round;stroke-linejoin:round;stroke-miterlimit:10;}
	.st27{fill:#CAF3BB;}
	.st28{fill:#FFFFFF;}
	.st29{fill:#CAF3BB;stroke:#000000;stroke-linecap:round;stroke-linejoin:round;stroke-miterlimit:10;}
	.st30{display:inline;fill:#D0E6FB;stroke:#000000;stroke-linecap:round;stroke-linejoin:round;stroke-miterlimit:10;}
	.st31{stroke:#FFFFFF;stroke-linecap:round;stroke-linejoin:round;stroke-miterlimit:10;}
	.st32{fill:#B4B2FB;stroke:#000000;stroke-linecap:round;stroke-linejoin:round;stroke-miterlimit:10;}
	.st33{fill:#018BEE;}
	.st34{display:inline;fill:none;stroke:#000000;stroke-linecap:round;stroke-linejoin:round;stroke-miterlimit:10;}
	.st35{fill:#75D95D;}
	.st36{fill:#4949F7;stroke:#000000;stroke-linecap:round;stroke-linejoin:round;stroke-miterlimit:10;}
	.st37{fill:#D0E6FB;}
	.st38{fill:#6FBBF7;stroke:#000000;stroke-linecap:round;stroke-linejoin:round;stroke-miterlimit:10;}
	.st39{fill:#018BEE;stroke:#000000;stroke-linecap:round;stroke-linejoin:round;stroke-miterlimit:10;}
	.st40{fill:#B4B2FB;}
	.st41{fill:#E8E9FE;}
	.st42{fill:#B4B2FB;stroke:#000F24;stroke-miterlimit:10;}
	.st43{stroke:#000000;stroke-miterlimit:10;}
	.st44{fill:#E8E9FE;stroke:#000000;stroke-linecap:round;stroke-linejoin:round;stroke-miterlimit:10;}
	.st45{opacity:0.3;fill:#018BEE;}
	.st46{fill:#6FBBF7;}
	.st47{fill:#FAAC01;stroke:#FFFFFF;stroke-linecap:round;stroke-linejoin:round;stroke-miterlimit:10;}
	.st48{fill:#006A2F;}
	.st49{opacity:0.1;}
	.st50{fill:#FCD4CA;stroke:#000000;stroke-linecap:round;stroke-linejoin:round;stroke-miterlimit:10;}
	.st51{fill:#006A2F;stroke:#000000;stroke-linecap:round;stroke-linejoin:round;stroke-miterlimit:10;}
	.st52{fill:#4949F7;}
	.st53{fill:#F12A00;}
	.st54{fill:#D0E6FB;stroke:#018BEE;stroke-linecap:round;stroke-linejoin:round;stroke-miterlimit:10;}
	.st55{fill:#9CD7FF;}
	.st56{fill:#F7C86C;}
	.st57{opacity:0.3;stroke:#000000;stroke-linecap:round;stroke-linejoin:round;stroke-miterlimit:10;}
	.st58{opacity:0.1;stroke:#000000;stroke-linecap:round;stroke-linejoin:round;stroke-miterlimit:10;}
	.st59{opacity:0.3;fill:#006A2F;}
	.st60{stroke:#000000;stroke-width:1.0825;stroke-linecap:round;stroke-linejoin:round;stroke-miterlimit:10;}
	.st61{fill:#D0E6FB;stroke:#000000;stroke-width:1.0825;stroke-linecap:round;stroke-linejoin:round;stroke-miterlimit:10;}
	.st62{fill:#6FBBF7;stroke:#000000;stroke-width:1.0825;stroke-linecap:round;stroke-linejoin:round;stroke-miterlimit:10;}
	.st63{fill:none;stroke:#000000;stroke-width:1.0825;stroke-linecap:round;stroke-linejoin:round;stroke-miterlimit:10;}
	.st64{fill:#CAF3BB;stroke:#000000;stroke-width:0.7876;stroke-linecap:round;stroke-linejoin:round;stroke-miterlimit:10;}
	.st65{fill:#6FBBF7;stroke:#FFFFFF;stroke-linecap:round;stroke-linejoin:round;stroke-miterlimit:10;}
	.st66{opacity:0.2;}
	.st67{stroke:#E8E9FE;stroke-linecap:round;stroke-linejoin:round;stroke-miterlimit:10;}
	.st68{fill:#FCD4CA;}
	.st69{fill:#FBECCF;}
	.st70{opacity:0.1;fill:#F12A00;}
	.st71{opacity:0.5;stroke:#000000;stroke-linecap:round;stroke-linejoin:round;stroke-miterlimit:10;}
	.st72{fill:#6FBBF7;stroke:#E8E9FE;stroke-linecap:round;stroke-linejoin:round;stroke-miterlimit:10;}
	.st73{opacity:0.5;fill:#D0E6FB;}
	.st74{fill:#70BAF7;}
	.st75{fill:none;stroke:#FFFFFF;stroke-linecap:round;stroke-linejoin:round;stroke-miterlimit:10;}
	.st76{fill:#70BAF7;stroke:#70BAF7;stroke-linecap:round;stroke-linejoin:round;stroke-miterlimit:10;}
	.st77{fill:#018BEE;stroke:#018BEE;stroke-linecap:round;stroke-linejoin:round;stroke-miterlimit:10;}
	.st78{fill:#70BAF7;stroke:#000000;stroke-linecap:round;stroke-linejoin:round;stroke-miterlimit:10;}
	.st79{fill:#F9CD6C;stroke:#000000;stroke-linecap:round;stroke-linejoin:round;stroke-miterlimit:10;}
	.st80{fill:none;}
	.st81{fill:#006A2F;stroke:#006A2F;stroke-miterlimit:10;}
	.st82{fill:#B4DFFC;}
	.st83{fill:#6FBBF7;stroke:#018BEE;stroke-linecap:round;stroke-linejoin:round;stroke-miterlimit:10;}
	.st84{fill:none;stroke:#FBECCF;stroke-linecap:round;stroke-linejoin:round;stroke-miterlimit:10;}
	.st85{fill:none;stroke:#018BEE;stroke-linecap:round;stroke-linejoin:round;stroke-miterlimit:10;}
	.st86{fill:#010101;stroke:#FFFFFF;stroke-linecap:round;stroke-linejoin:round;stroke-miterlimit:10;}
	.st87{fill:#010101;stroke:#000000;stroke-linecap:round;stroke-linejoin:round;stroke-miterlimit:10;}
	.st88{fill:#75D95D;stroke:#FFFFFF;stroke-linecap:round;stroke-linejoin:round;stroke-miterlimit:10;}
	.st89{fill:#94F279;stroke:#000000;stroke-linecap:round;stroke-linejoin:round;stroke-miterlimit:10;}
	.st90{fill:#8C8CF9;}
	.st91{fill:#008FF5;}
	.st92{fill:#8CD8F9;}
	.st93{fill:#FFC043;}
	.st94{fill:#94F279;}
	.st95{fill:#FF3D1D;}
	.st96{fill:#31B1FF;}
	.st97{fill:#FFCF7B;}
	.st98{fill:#B2FF99;}
	.st99{fill:#D7D7FF;}
	.st100{fill:#FF7C6E;}
	.st101{fill:#5CC9FF;}
	.st102{fill:#F12A00;stroke:#FFFFFF;stroke-linecap:round;stroke-linejoin:round;stroke-miterlimit:10;}
	.st103{fill:#F7C86C;stroke:#000000;stroke-width:1.0164;stroke-miterlimit:10;}
</style><g id="Refrences" class="st0"/><g id="Tittle"/><g id="Icons"><g><g><g><g><path class="st5" d="M86.79,17.42c-0.8-2.2-3.19-3.39-5.44-2.67l-32.84,10.6c-2.24,0.72-3.49,3.09-2.85,5.34L86.79,17.42z"/><path class="st5" d="M79.79,19.68c-0.49-0.42-0.89-0.97-1.1-1.63l-26.08,8.42c0.21,0.66,0.22,1.34,0.06,1.97L79.79,19.68z"/><path class="st5" d="M79.79,19.68c-0.49-0.42-0.89-0.97-1.1-1.63l-26.08,8.42c0.21,0.66,0.22,1.34,0.06,1.97L79.79,19.68z"/></g><g><path class="st26" d="M87.91,35.4L55.27,45.94c-2.35,0.76-4.87-0.53-5.63-2.88l-3.56-11.03c-0.76-2.35,0.53-4.87,2.88-5.63       l32.64-10.54c2.35-0.76,4.87,0.53,5.63,2.88l3.56,11.03C91.55,32.12,90.26,34.64,87.91,35.4z"/><path class="st29" d="M68.39,39.27l15.54-5.02c-0.61-1.9,0.43-3.94,2.33-4.55l-2.66-8.25c-1.9,0.61-3.94-0.43-4.55-2.33       l-14.1,4.55l-0.63,0.2l-11.35,3.66c0.61,1.9-0.43,3.94-2.33,4.55l2.66,8.25c1.9-0.61,3.94,0.43,4.55,2.33l12.78-4.13       L68.39,39.27z"/><path class="st59" d="M52.83,38.93l0.46,1.42c1.9-0.61,3.94,0.43,4.55,2.33l26.08-8.42c-0.61-1.9,0.43-3.94,2.33-4.55       l-1.63-5.04C78.9,34.6,67.97,39,52.83,38.93z"/><circle class="st26" cx="67.55" cy="31.7" r="4.61"/><g><g><path d="M66.97,29.9c-0.24,0.08-0.5-0.06-0.58-0.3l-0.23-0.73c-0.08-0.24,0.05-0.5,0.3-0.58c0.24-0.08,0.5,0.06,0.58,0.3         l0.23,0.73C67.35,29.56,67.22,29.83,66.97,29.9z"/></g><g><g><path d="M68.42,34.38c-0.86,0.28-1.79-0.2-2.06-1.06c-0.08-0.24,0.05-0.5,0.3-0.58c0.24-0.08,0.5,0.06,0.58,0.3          c0.12,0.37,0.52,0.58,0.9,0.46c0.37-0.12,0.58-0.52,0.46-0.9c-0.12-0.37-0.52-0.58-0.9-0.46c-0.86,0.28-1.79-0.2-2.06-1.06          c-0.28-0.86,0.2-1.79,1.06-2.06s1.79,0.2,2.06,1.06c0.08,0.24-0.05,0.5-0.3,0.58c-0.24,0.08-0.5-0.06-0.58-0.3          c-0.12-0.37-0.52-0.58-0.9-0.46c-0.37,0.12-0.58,0.52-0.46,0.9c0.12,0.37,0.52,0.58,0.9,0.46c0.86-0.28,1.79,0.2,2.06,1.06          C69.75,33.18,69.28,34.1,68.42,34.38z"/></g><g><path d="M68.65,35.11c-0.24,0.08-0.5-0.06-0.58-0.3l-0.23-0.73c-0.08-0.24,0.05-0.5,0.3-0.58c0.24-0.08,0.5,0.06,0.58,0.3          l0.23,0.73C69.03,34.77,68.89,35.03,68.65,35.11z"/></g></g></g><circle class="st26" cx="57.23" cy="35.03" r="1.57"/><circle class="st26" cx="78.94" cy="28.03" r="1.57"/><path class="st11" d="M68.39,39.27l15.54-5.02c-0.61-1.9,0.43-3.94,2.33-4.55l-2.66-8.25c-1.9,0.61-3.94-0.43-4.55-2.33       l-14.1,4.55l-0.63,0.2l-11.35,3.66c0.61,1.9-0.43,3.94-2.33,4.55l2.66,8.25c1.9-0.61,3.94,0.43,4.55,2.33l12.78-4.13       L68.39,39.27z"/></g></g><g><path class="st5" d="M20.35,89.1H3.28C2.58,89.1,2,88.52,2,87.81v-1.75c0-0.71,0.58-1.28,1.28-1.28l17.06,0      c0.71,0,1.28,0.58,1.28,1.28v1.75C21.63,88.52,21.06,89.1,20.35,89.1z"/><path class="st5" d="M22.69,84.78H5.62c-0.71,0-1.28-0.58-1.28-1.28v-1.75c0-0.71,0.58-1.28,1.28-1.28h17.06      c0.71,0,1.28,0.58,1.28,1.28v1.75C23.97,84.21,23.4,84.78,22.69,84.78z"/><path class="st5" d="M20.35,80.46H3.28C2.58,80.46,2,79.89,2,79.18l0-1.75c0-0.71,0.58-1.28,1.28-1.28h17.06      c0.71,0,1.28,0.58,1.28,1.28v1.75C21.63,79.89,21.06,80.46,20.35,80.46z"/><rect x="10.1" y="76.14" class="st5" width="3.44" height="4.32"/><rect x="12.44" y="80.46" class="st5" width="3.44" height="4.32"/><rect x="10.1" y="84.78" class="st5" width="3.44" height="4.32"/><path class="st26" d="M21.52,89.1H4.45c-0.71,0-1.28-0.58-1.28-1.28v-1.75c0-0.71,0.58-1.28,1.28-1.28h17.06      c0.71,0,1.28,0.58,1.28,1.28v1.75C22.8,88.52,22.23,89.1,21.52,89.1z"/><path class="st26" d="M23.86,84.78H6.79c-0.71,0-1.28-0.58-1.28-1.28v-1.75c0-0.71,0.58-1.28,1.28-1.28h17.06      c0.71,0,1.28,0.58,1.28,1.28v1.75C25.14,84.21,24.57,84.78,23.86,84.78z"/><path class="st26" d="M21.52,80.46H4.45c-0.71,0-1.28-0.58-1.28-1.28l0-1.75c0-0.71,0.58-1.28,1.28-1.28h17.06      c0.71,0,1.28,0.58,1.28,1.28v1.75C22.8,79.89,22.23,80.46,21.52,80.46z"/><rect x="11.27" y="76.14" class="st25" width="3.44" height="4.32"/><rect x="13.6" y="80.46" class="st25" width="3.44" height="4.32"/><rect x="11.27" y="84.78" class="st25" width="3.44" height="4.32"/></g><g><path class="st8" d="M17.43,76.14c1.16,0,2.11-4.11,2.11-9.19s-0.94-9.19-2.11-9.19h-2.11v18.38H17.43z"/><ellipse class="st13" cx="15.32" cy="66.95" rx="2.11" ry="9.19"/></g><g><g><g><g><path class="st5" d="M20,84.26c-0.73,0-1.11,0.86-0.64,1.41c1.91,2.25,4.73,3.68,7.91,3.68h58.01c2.24,0,4.31-0.71,6-1.92         c1.38-0.98,0.64-3.17-1.05-3.17L20,84.26z"/><path class="st38" d="M19.71,84.26c-1.69,0-2.43,2.19-1.05,3.17c1.69,1.21,3.76,1.92,6,1.92h58.01c2.24,0,4.31-0.71,6-1.92         c1.38-0.98,0.64-3.17-1.05-3.17H19.71z"/><path class="st25" d="M64.49,85.03v-0.77H42.84v0.77c0,1,0.81,1.8,1.8,1.8h18.04C63.69,86.84,64.49,86.03,64.49,85.03z"/><path class="st5" d="M83.03,39.89c2.67,0,4.83,2.16,4.83,4.83v39.54H24.7V44.71c0-2.67,2.16-4.83,4.83-4.83H83.03z"/><path class="st38" d="M80.42,39.89c2.67,0,4.83,2.16,4.83,4.83v39.54H22.09V44.71c0-2.67,2.16-4.83,4.83-4.83H80.42z"/><polygon class="st37" points="36.24,84.26 35.63,89.35 25.14,89.35 25.75,84.26        "/><polygon class="st37" points="42.07,84.26 41.45,89.35 38.97,89.35 37.75,84.26        "/><path class="st11" d="M80.42,39.89c2.67,0,4.83,2.16,4.83,4.83v39.54H22.09V44.71c0-2.67,2.16-4.83,4.83-4.83H80.42z"/><path class="st5" d="M81.34,45.44V78.7c0,0.91-0.74,1.65-1.65,1.65H27.65c-0.91,0-1.65-0.74-1.65-1.65V45.44         c0-0.91,0.74-1.65,1.65-1.65H79.7C80.61,43.8,81.34,44.54,81.34,45.44z"/><rect x="77.1" y="39.92" class="st33" width="2.27" height="3.87"/><rect x="30.07" y="39.92" class="st33" width="2.27" height="3.87"/><path class="st11" d="M19.71,84.26c-1.69,0-2.43,2.19-1.05,3.17c1.69,1.21,3.76,1.92,6,1.92h58.01c2.24,0,4.31-0.71,6-1.92         c1.38-0.98,0.64-3.17-1.05-3.17H19.71z"/><path class="st11" d="M80.42,39.89c2.67,0,4.83,2.16,4.83,4.83v39.54H22.09V44.71c0-2.67,2.16-4.83,4.83-4.83H80.42z"/><path class="st24" d="M81.34,45.44V78.7c0,0.91-0.74,1.65-1.65,1.65H29.75c-0.91,0-1.65-0.74-1.65-1.65V45.44         c0-0.91,0.74-1.65,1.65-1.65H79.7C80.61,43.8,81.34,44.54,81.34,45.44z"/><polygon class="st45" points="44.69,43.8 38.26,43.8 31.9,79.93 38.34,79.93        "/><path class="st11" d="M81.34,45.44V78.7c0,0.91-0.74,1.65-1.65,1.65H29.75c-0.91,0-1.65-0.74-1.65-1.65V45.44         c0-0.91,0.74-1.65,1.65-1.65H79.7C80.61,43.8,81.34,44.54,81.34,45.44z"/></g></g></g></g><g><path class="st18" d="M23.58,21.22c-3.02-5.92-2.19-12.4,1.84-14.46l2.9-1.48c-4.04,2.06-4.86,8.53-1.84,14.46      c3.02,5.94,8.75,9.08,12.78,7.03l-2.9,1.48C32.33,30.3,26.61,27.15,23.58,21.22z"/><path d="M24.83,14.61c-0.61-4.15,0.62-7.86,3.5-9.33l-2.9,1.48c-2.88,1.46-4.11,5.18-3.5,9.33L24.83,14.61z"/><path class="st20" d="M23.58,21.22c-3.02-5.92-2.19-12.4,1.84-14.46l2.9-1.48c-4.04,2.06-4.86,8.53-1.84,14.46      c3.02,5.94,8.75,9.08,12.78,7.03l-2.9,1.48C32.33,30.3,26.61,27.15,23.58,21.22z"/><ellipse transform="matrix(0.8911 -0.4538 0.4538 0.8911 -3.5902 17.0826)" class="st21" cx="33.8" cy="16.02" rx="8.2" ry="12.06"/><ellipse transform="matrix(0.8911 -0.4538 0.4538 0.8911 -3.5902 17.0826)" class="st19" cx="33.8" cy="16.02" rx="6.56" ry="9.64"/><path class="st18" d="M27.95,18.99c-1.43-2.82-1.79-5.77-1.16-8.05c-0.01,1.81,0.47,3.82,1.45,5.75      c2.42,4.76,6.99,7.27,10.22,5.63c1.32-0.67,2.22-1.95,2.63-3.55c0.01,2.64-1,4.87-2.92,5.85      C34.95,26.26,30.38,23.75,27.95,18.99z"/><ellipse transform="matrix(0.8911 -0.4538 0.4538 0.8911 -3.5902 17.0826)" class="st20" cx="33.8" cy="16.02" rx="6.56" ry="9.64"/><g><path d="M31.13,10.33l0.52,1.03c0.38-0.11,0.73-0.14,1.03-0.09c0.3,0.05,0.63,0.23,0.98,0.51s0.67,0.69,0.97,1.21l-0.6,0.55       c-0.34-0.53-0.64-0.88-0.91-1.07c-0.38-0.27-0.72-0.35-1.02-0.25l1.67,3.28c0.33-0.07,0.71-0.05,1.13,0.04       c0.32,0.07,0.62,0.24,0.9,0.5c0.29,0.26,0.53,0.6,0.74,1.01c0.37,0.73,0.5,1.41,0.38,2.05c-0.08,0.43-0.34,0.79-0.76,1.1       l0.67,1.32l-0.41,0.21l-0.67-1.32c-0.44,0.15-0.85,0.14-1.24-0.03c-0.5-0.22-0.94-0.64-1.34-1.26l0.64-0.53       c0.25,0.38,0.49,0.65,0.73,0.8s0.49,0.2,0.76,0.15l-1.51-2.97c-0.42,0.05-0.7,0.07-0.85,0.05c-0.29-0.03-0.55-0.11-0.79-0.24       c-0.24-0.13-0.47-0.32-0.68-0.56c-0.22-0.24-0.41-0.52-0.57-0.85c-0.36-0.71-0.51-1.39-0.45-2.02s0.33-1.09,0.81-1.38       l-0.53-1.04L31.13,10.33z M35.72,19.34c0.24-0.2,0.37-0.47,0.4-0.81c0.02-0.34-0.05-0.69-0.23-1.04       c-0.18-0.35-0.39-0.61-0.65-0.78c-0.25-0.17-0.58-0.24-0.97-0.22L35.72,19.34z M31.69,12.44c-0.25,0.19-0.38,0.48-0.41,0.86       c-0.03,0.39,0.07,0.8,0.3,1.24c0.19,0.37,0.41,0.64,0.65,0.8c0.24,0.16,0.6,0.24,1.06,0.23L31.69,12.44z"/></g></g><g><path class="st18" d="M3.16,31.71c0,6.65,3.67,12.05,8.2,12.05l3.26,0c-4.53,0-8.2-5.4-8.2-12.05c0-6.66,3.67-12.06,8.2-12.06      l-3.26,0C6.83,19.64,3.16,25.04,3.16,31.71z"/><path d="M7.26,37.03c1.34,3.98,4.12,6.73,7.35,6.73l-3.26,0c-3.23,0-6.01-2.75-7.35-6.73L7.26,37.03z"/><path class="st20" d="M3.16,31.71c0,6.65,3.67,12.05,8.2,12.05l3.26,0c-4.53,0-8.2-5.4-8.2-12.05c0-6.66,3.67-12.06,8.2-12.06      l-3.26,0C6.83,19.64,3.16,25.04,3.16,31.71z"/><ellipse class="st21" cx="14.62" cy="31.7" rx="8.2" ry="12.06"/><ellipse class="st19" cx="14.62" cy="31.7" rx="6.56" ry="9.64"/><path class="st18" d="M8.06,31.71c0,3.16,1.03,5.96,2.62,7.7c-0.83-1.61-1.32-3.62-1.32-5.78c0-5.34,2.93-9.65,6.55-9.65      c1.48,0,2.86,0.73,3.96,1.97c-1.18-2.36-3.1-3.89-5.26-3.89C10.99,22.06,8.06,26.36,8.06,31.71z"/><ellipse class="st20" cx="14.62" cy="31.7" rx="6.56" ry="9.64"/><g><path d="M14.36,37.98l0-1.17c-0.55-0.04-1-0.33-1.34-0.86c-0.35-0.53-0.52-1.2-0.52-2c0-0.36,0.04-0.7,0.12-1.01       c0.08-0.31,0.2-0.58,0.36-0.81c0.15-0.23,0.35-0.42,0.6-0.58c0.13-0.08,0.39-0.19,0.79-0.34l0-3.33       c-0.26,0.08-0.46,0.24-0.6,0.48c-0.15,0.24-0.24,0.59-0.29,1.04l-0.81-0.18c0.07-0.73,0.28-1.31,0.62-1.73       c0.27-0.33,0.63-0.53,1.09-0.59l0-1.48l0.46,0l0,1.48c0.52,0.08,0.91,0.29,1.18,0.63c0.4,0.51,0.59,1.17,0.59,2       c0,0.46-0.07,0.87-0.2,1.24c-0.14,0.36-0.33,0.65-0.58,0.85c-0.34,0.28-0.67,0.46-0.99,0.55l0,3.68       c0.31-0.05,0.57-0.28,0.79-0.69c0.15-0.29,0.26-0.75,0.32-1.37l0.79,0.22c-0.03,0.6-0.13,1.11-0.31,1.52s-0.39,0.72-0.64,0.9       c-0.25,0.19-0.57,0.32-0.96,0.39l0,1.16L14.36,37.98z M14.82,31.06c0.36-0.16,0.61-0.37,0.76-0.64       c0.15-0.27,0.22-0.59,0.22-0.99c0-0.4-0.09-0.74-0.26-1.03c-0.18-0.29-0.42-0.47-0.72-0.54L14.82,31.06z M14.36,32.33       c-0.42,0.2-0.7,0.43-0.84,0.68s-0.21,0.59-0.21,1.01c0,0.49,0.1,0.9,0.3,1.24c0.2,0.33,0.45,0.53,0.76,0.58L14.36,32.33z"/></g></g></g><g><g><g><path class="st5" d="M32.15,75.12c-0.47,0-0.94-0.22-1.23-0.64c-0.47-0.68-0.31-1.61,0.37-2.09l6.4-4.47       c2.05-1.43,4.77-1.56,6.94-0.32c1.18,0.67,2.66,0.6,3.77-0.19l4.74-3.37c1.7-1.21,3.89-1.53,5.87-0.86l2.93,1       c1.37,0.47,2.91,0.03,3.83-1.09l5.93-7.18c0.52-0.64,1.47-0.73,2.11-0.2c0.64,0.53,0.73,1.47,0.2,2.11L68.08,65       c-1.71,2.07-4.57,2.88-7.11,2.02l-2.93-1c-1.06-0.36-2.25-0.19-3.16,0.46l-4.74,3.37c-2.05,1.46-4.8,1.6-6.99,0.35       c-1.17-0.66-2.64-0.6-3.74,0.17L33,74.85C32.74,75.04,32.44,75.12,32.15,75.12z"/></g><polygon class="st5" points="76.89,60.6 78.59,52.39 77.75,51.39 68.54,52.25     "/></g><g><g><path class="st25" d="M32.99,76.12c-0.47,0-0.94-0.22-1.23-0.64c-0.47-0.68-0.31-1.61,0.37-2.09l6.4-4.47       c2.05-1.43,4.77-1.56,6.94-0.32c1.18,0.67,2.66,0.6,3.77-0.19l4.74-3.37c1.7-1.21,3.89-1.53,5.87-0.86l2.93,1       c1.37,0.47,2.91,0.03,3.83-1.09l5.93-7.18c0.52-0.64,1.47-0.73,2.11-0.2c0.64,0.53,0.73,1.47,0.2,2.11L68.92,66       c-1.71,2.07-4.57,2.88-7.11,2.02l-2.93-1c-1.06-0.36-2.25-0.19-3.16,0.46l-4.74,3.37c-2.05,1.46-4.8,1.6-6.99,0.35       c-1.17-0.66-2.64-0.6-3.74,0.17l-6.4,4.47C33.58,76.04,33.28,76.12,32.99,76.12z"/></g><polygon class="st25" points="77.73,61.6 78.59,52.39 69.38,53.25     "/></g></g></g></g><g id="Layer_4"/></svg>