<?xml version="1.0" ?><svg xmlns="http://www.w3.org/2000/svg" xmlns:xlink="http://www.w3.org/1999/xlink" version="1.1" viewBox="0 0 94 94" style="enable-background:new 0 0 94 94;" xml:space="preserve"><style type="text/css">
	.st0{display:none;}
	.st1{display:inline;fill:#FEA900;}
	.st2{display:inline;}
	.st3{display:inline;fill:#F9CD6C;}
	.st4{display:inline;fill:none;stroke:#000000;stroke-width:0.25;stroke-miterlimit:10;}
	.st5{stroke:#000000;stroke-linecap:round;stroke-linejoin:round;stroke-miterlimit:10;}
	.st6{opacity:0.2;stroke:#000000;stroke-linecap:round;stroke-linejoin:round;stroke-miterlimit:10;}
	.st7{fill:#F12A00;stroke:#000000;stroke-linecap:round;stroke-linejoin:round;stroke-miterlimit:10;}
	.st8{fill:#FBECCF;stroke:#000000;stroke-linecap:round;stroke-linejoin:round;stroke-miterlimit:10;}
	.st9{opacity:0.2;fill:#F12A00;}
	.st10{fill:#F7C86C;stroke:#000000;stroke-linecap:round;stroke-linejoin:round;stroke-miterlimit:10;}
	.st11{fill:none;stroke:#000000;stroke-linecap:round;stroke-linejoin:round;stroke-miterlimit:10;}
	.st12{display:inline;stroke:#000000;stroke-linecap:round;stroke-linejoin:round;stroke-miterlimit:10;}
	.st13{fill:#FAAC01;stroke:#000000;stroke-linecap:round;stroke-linejoin:round;stroke-miterlimit:10;}
	.st14{fill:#FAAC01;}
	.st15{display:inline;fill:#FAEBCE;stroke:#000000;stroke-width:0.25;stroke-miterlimit:10;}
	.st16{display:inline;fill:none;stroke:#000000;stroke-width:1.0164;stroke-miterlimit:10;}
	.st17{display:inline;fill:#FAEBCE;stroke:#000000;stroke-width:1.0164;stroke-miterlimit:10;}
	.st18{fill:#FEA900;}
	.st19{fill:#F9CD6C;}
	.st20{fill:none;stroke:#000000;stroke-width:1.0164;stroke-miterlimit:10;}
	.st21{fill:#FAEBCE;stroke:#000000;stroke-width:1.0164;stroke-miterlimit:10;}
	.st22{display:inline;fill:#FAEBCE;}
	.st23{fill:#008FF5;stroke:#000000;stroke-linecap:round;stroke-linejoin:round;stroke-miterlimit:10;}
	.st24{fill:#D0E6FB;stroke:#000000;stroke-linecap:round;stroke-linejoin:round;stroke-miterlimit:10;}
	.st25{fill:#FFFFFF;stroke:#000000;stroke-linecap:round;stroke-linejoin:round;stroke-miterlimit:10;}
	.st26{fill:#75D95D;stroke:#000000;stroke-linecap:round;stroke-linejoin:round;stroke-miterlimit:10;}
	.st27{fill:#CAF3BB;}
	.st28{fill:#FFFFFF;}
	.st29{fill:#CAF3BB;stroke:#000000;stroke-linecap:round;stroke-linejoin:round;stroke-miterlimit:10;}
	.st30{display:inline;fill:#D0E6FB;stroke:#000000;stroke-linecap:round;stroke-linejoin:round;stroke-miterlimit:10;}
	.st31{stroke:#FFFFFF;stroke-linecap:round;stroke-linejoin:round;stroke-miterlimit:10;}
	.st32{fill:#B4B2FB;stroke:#000000;stroke-linecap:round;stroke-linejoin:round;stroke-miterlimit:10;}
	.st33{fill:#018BEE;}
	.st34{display:inline;fill:none;stroke:#000000;stroke-linecap:round;stroke-linejoin:round;stroke-miterlimit:10;}
	.st35{fill:#75D95D;}
	.st36{fill:#4949F7;stroke:#000000;stroke-linecap:round;stroke-linejoin:round;stroke-miterlimit:10;}
	.st37{fill:#D0E6FB;}
	.st38{fill:#6FBBF7;stroke:#000000;stroke-linecap:round;stroke-linejoin:round;stroke-miterlimit:10;}
	.st39{fill:#018BEE;stroke:#000000;stroke-linecap:round;stroke-linejoin:round;stroke-miterlimit:10;}
	.st40{fill:#B4B2FB;}
	.st41{fill:#E8E9FE;}
	.st42{fill:#B4B2FB;stroke:#000F24;stroke-miterlimit:10;}
	.st43{stroke:#000000;stroke-miterlimit:10;}
	.st44{fill:#E8E9FE;stroke:#000000;stroke-linecap:round;stroke-linejoin:round;stroke-miterlimit:10;}
	.st45{opacity:0.3;fill:#018BEE;}
	.st46{fill:#6FBBF7;}
	.st47{fill:#FAAC01;stroke:#FFFFFF;stroke-linecap:round;stroke-linejoin:round;stroke-miterlimit:10;}
	.st48{fill:#006A2F;}
	.st49{opacity:0.1;}
	.st50{fill:#FCD4CA;stroke:#000000;stroke-linecap:round;stroke-linejoin:round;stroke-miterlimit:10;}
	.st51{fill:#006A2F;stroke:#000000;stroke-linecap:round;stroke-linejoin:round;stroke-miterlimit:10;}
	.st52{fill:#4949F7;}
	.st53{fill:#F12A00;}
	.st54{fill:#D0E6FB;stroke:#018BEE;stroke-linecap:round;stroke-linejoin:round;stroke-miterlimit:10;}
	.st55{fill:#9CD7FF;}
	.st56{fill:#F7C86C;}
	.st57{opacity:0.3;stroke:#000000;stroke-linecap:round;stroke-linejoin:round;stroke-miterlimit:10;}
	.st58{opacity:0.1;stroke:#000000;stroke-linecap:round;stroke-linejoin:round;stroke-miterlimit:10;}
	.st59{opacity:0.3;fill:#006A2F;}
	.st60{stroke:#000000;stroke-width:1.0825;stroke-linecap:round;stroke-linejoin:round;stroke-miterlimit:10;}
	.st61{fill:#D0E6FB;stroke:#000000;stroke-width:1.0825;stroke-linecap:round;stroke-linejoin:round;stroke-miterlimit:10;}
	.st62{fill:#6FBBF7;stroke:#000000;stroke-width:1.0825;stroke-linecap:round;stroke-linejoin:round;stroke-miterlimit:10;}
	.st63{fill:none;stroke:#000000;stroke-width:1.0825;stroke-linecap:round;stroke-linejoin:round;stroke-miterlimit:10;}
	.st64{fill:#CAF3BB;stroke:#000000;stroke-width:0.7876;stroke-linecap:round;stroke-linejoin:round;stroke-miterlimit:10;}
	.st65{fill:#6FBBF7;stroke:#FFFFFF;stroke-linecap:round;stroke-linejoin:round;stroke-miterlimit:10;}
	.st66{opacity:0.2;}
	.st67{stroke:#E8E9FE;stroke-linecap:round;stroke-linejoin:round;stroke-miterlimit:10;}
	.st68{fill:#FCD4CA;}
	.st69{fill:#FBECCF;}
	.st70{opacity:0.1;fill:#F12A00;}
	.st71{opacity:0.5;stroke:#000000;stroke-linecap:round;stroke-linejoin:round;stroke-miterlimit:10;}
	.st72{fill:#6FBBF7;stroke:#E8E9FE;stroke-linecap:round;stroke-linejoin:round;stroke-miterlimit:10;}
	.st73{opacity:0.5;fill:#D0E6FB;}
	.st74{fill:#70BAF7;}
	.st75{fill:none;stroke:#FFFFFF;stroke-linecap:round;stroke-linejoin:round;stroke-miterlimit:10;}
	.st76{fill:#70BAF7;stroke:#70BAF7;stroke-linecap:round;stroke-linejoin:round;stroke-miterlimit:10;}
	.st77{fill:#018BEE;stroke:#018BEE;stroke-linecap:round;stroke-linejoin:round;stroke-miterlimit:10;}
	.st78{fill:#70BAF7;stroke:#000000;stroke-linecap:round;stroke-linejoin:round;stroke-miterlimit:10;}
	.st79{fill:#F9CD6C;stroke:#000000;stroke-linecap:round;stroke-linejoin:round;stroke-miterlimit:10;}
	.st80{fill:none;}
	.st81{fill:#006A2F;stroke:#006A2F;stroke-miterlimit:10;}
	.st82{fill:#B4DFFC;}
	.st83{fill:#6FBBF7;stroke:#018BEE;stroke-linecap:round;stroke-linejoin:round;stroke-miterlimit:10;}
	.st84{fill:none;stroke:#FBECCF;stroke-linecap:round;stroke-linejoin:round;stroke-miterlimit:10;}
	.st85{fill:none;stroke:#018BEE;stroke-linecap:round;stroke-linejoin:round;stroke-miterlimit:10;}
	.st86{fill:#010101;stroke:#FFFFFF;stroke-linecap:round;stroke-linejoin:round;stroke-miterlimit:10;}
	.st87{fill:#010101;stroke:#000000;stroke-linecap:round;stroke-linejoin:round;stroke-miterlimit:10;}
	.st88{fill:#75D95D;stroke:#FFFFFF;stroke-linecap:round;stroke-linejoin:round;stroke-miterlimit:10;}
	.st89{fill:#94F279;stroke:#000000;stroke-linecap:round;stroke-linejoin:round;stroke-miterlimit:10;}
	.st90{fill:#8C8CF9;}
	.st91{fill:#008FF5;}
	.st92{fill:#8CD8F9;}
	.st93{fill:#FFC043;}
	.st94{fill:#94F279;}
	.st95{fill:#FF3D1D;}
	.st96{fill:#31B1FF;}
	.st97{fill:#FFCF7B;}
	.st98{fill:#B2FF99;}
	.st99{fill:#D7D7FF;}
	.st100{fill:#FF7C6E;}
	.st101{fill:#5CC9FF;}
	.st102{fill:#F12A00;stroke:#FFFFFF;stroke-linecap:round;stroke-linejoin:round;stroke-miterlimit:10;}
	.st103{fill:#F7C86C;stroke:#000000;stroke-width:1.0164;stroke-miterlimit:10;}
</style><g id="Refrences" class="st0"/><g id="Tittle"/><g id="Icons"><g><g><path class="st5" d="M4.86,83.37c2,3.33,5.61,5.58,9.78,5.58h67.59c4.17,0,7.78-2.25,9.78-5.58H4.86z"/><path class="st38" d="M2,83.37c2,3.33,5.61,5.58,9.78,5.58h67.59c4.17,0,7.78-2.25,9.78-5.58H2z"/><path class="st25" d="M57.44,84.22v-0.85H33.71v0.85c0,1.09,0.89,1.98,1.98,1.98h19.77C56.55,86.2,57.44,85.31,57.44,84.22z"/><path class="st5" d="M79.75,31.74c2.92,0,5.29,2.37,5.29,5.29v46.34H11.82V37.03c0-2.92,2.37-5.29,5.29-5.29H79.75z"/><path class="st38" d="M76.89,31.74c2.92,0,5.29,2.37,5.29,5.29v46.34H8.96V37.03c0-2.92,2.37-5.29,5.29-5.29H76.89z"/><g><polygon class="st37" points="32.86,31.74 21.36,31.74 15.55,83.43 27.05,83.43     "/></g><g><polygon class="st37" points="41.25,31.74 36.52,31.74 30.71,83.43 35.44,83.43     "/></g><g><polygon class="st37" points="24.47,83.37 23.8,88.95 12.31,88.95 12.98,83.37     "/></g><g><polygon class="st37" points="32.86,83.37 32.18,88.95 27.46,88.95 28.13,83.37     "/></g><path class="st11" d="M76.89,31.74c2.92,0,5.29,2.37,5.29,5.29v46.34H8.96V37.03c0-2.92,2.37-5.29,5.29-5.29H76.89z"/><g><path class="st5" d="M13.25,77.07V38.03c0-1.11,0.9-2.01,2.01-2.01h60.63c1.11,0,2.01,0.9,2.01,2.01v39.04      c0,1.11-0.9,2.01-2.01,2.01H15.26C14.15,79.08,13.25,78.18,13.25,77.07z"/></g><path class="st5" d="M77.9,37.85v39.41c0,1-0.81,1.81-1.81,1.81H15.07c-1,0-1.81-0.81-1.81-1.81V37.84c0-1,0.81-1.81,1.81-1.81     h61.01C77.08,36.02,77.9,36.85,77.9,37.85z"/><path class="st25" d="M77.9,37.85v39.41c0,1-0.81,1.81-1.81,1.81H17.37c-1,0-1.81-0.81-1.81-1.81V37.84c0-1,0.81-1.81,1.81-1.81     h58.71C77.08,36.02,77.9,36.85,77.9,37.85z"/><path class="st11" d="M2,83.37c2,3.33,5.61,5.58,9.78,5.58h67.59c4.17,0,7.78-2.25,9.78-5.58H2z"/></g><g><g><path class="st5" d="M48.8,5.05c-2.05,0-4.02,0.31-5.89,0.88v38.25c1.86,0.57,3.84,0.88,5.89,0.88      c11.05,0,20.01-8.96,20.01-20.01C68.81,14,59.85,5.05,48.8,5.05z"/><path class="st5" d="M42.92,44c2.01,0.68,4.16,1.06,6.4,1.06c0.67,0,1.34-0.03,2-0.1c-3.05-0.3-5.9-1.3-8.4-2.82V44z"/><path class="st5" d="M42.92,7.97c2.49-1.52,5.34-2.51,8.4-2.82c-0.66-0.07-1.33-0.1-2-0.1c-2.24,0-4.38,0.38-6.4,1.06V7.97z"/><path class="st5" d="M48.8,5.05c-2.05,0-4.02,0.31-5.89,0.88v38.25c1.86,0.57,3.84,0.88,5.89,0.88      c11.05,0,20.01-8.96,20.01-20.01C68.81,14,59.85,5.05,48.8,5.05z"/><g><path class="st5" d="M42.92,24.82v11.15c0.69-0.17,1.2-0.78,1.23-1.51l0.35-9.71L42.92,24.82z"/><circle class="st5" cx="59.35" cy="21.87" r="3.17"/><path class="st5" d="M57.39,29.29l-11.67-2.17L45.3,17.3l11.44-3.15c1.11-0.3,2.21,0.5,2.26,1.65l0.49,11.66       C59.55,28.6,58.52,29.5,57.39,29.29z"/><path class="st5" d="M56.75,14.15l-0.3,0.08l0.64,15l0.3,0.06c1.13,0.21,2.16-0.69,2.11-1.83L59.01,15.8       C58.96,14.65,57.86,13.85,56.75,14.15z"/><polygon class="st5" points="42.92,27.24 45.72,27.12 45.3,17.3 42.92,17.4      "/><polygon class="st5" points="42.92,27.24 45.72,27.12 45.3,17.3 42.92,17.4      "/></g></g><g><circle class="st24" cx="45.2" cy="25.05" r="20.01"/><path class="st46" d="M47.71,44.96c-0.66,0.07-1.33,0.1-2,0.1c-11.05,0-20.01-8.96-20.01-20.01s8.96-20,20.01-20      c0.67,0,1.34,0.03,2,0.1c-10.12,1-18.02,9.52-18.02,19.9S37.59,43.96,47.71,44.96z"/><circle class="st11" cx="45.2" cy="25.05" r="20.01"/><g><path class="st50" d="M38.99,36.02L38.99,36.02c-0.84,0.04-1.58-0.58-1.68-1.42l-1.17-9.64l4.75-0.2l-0.35,9.71       C40.51,35.3,39.83,35.98,38.99,36.02z"/><circle class="st50" cx="55.75" cy="21.87" r="3.17"/><path class="st50" d="M53.79,29.29l-11.67-2.17L41.7,17.3l11.44-3.15c1.11-0.3,2.21,0.5,2.26,1.65l0.49,11.66       C55.95,28.6,54.92,29.5,53.79,29.29z"/><path class="st7" d="M53.15,14.15l-0.3,0.08l0.64,15l0.3,0.06c1.13,0.21,2.16-0.69,2.11-1.83L55.4,15.8       C55.36,14.65,54.25,13.85,53.15,14.15z"/><path class="st7" d="M41.7,17.3l0.42,9.82l-6.01,0.26c-0.99,0.04-1.82-0.72-1.86-1.71l-0.27-6.25       c-0.04-0.99,0.72-1.82,1.71-1.86L41.7,17.3z"/><path class="st68" d="M36.7,17.51l-1.01,0.04c-0.99,0.04-1.75,0.88-1.71,1.86l0.27,6.25c0.04,0.99,0.88,1.75,1.86,1.71       l0.6-0.03V17.51z"/><path class="st7" d="M34.22,25.03l-1.25,0.05c-0.75,0.03-1.38-0.55-1.41-1.29l-0.1-2.28c-0.03-0.75,0.55-1.38,1.29-1.41       l1.25-0.05L34.22,25.03z"/><path class="st11" d="M41.7,17.3l0.42,9.82l-6.01,0.26c-0.99,0.04-1.82-0.72-1.86-1.71l-0.27-6.25       c-0.04-0.99,0.72-1.82,1.71-1.86L41.7,17.3z"/></g></g></g><g><g><g><circle class="st24" cx="30.16" cy="60.69" r="10.09"/><path class="st46" d="M31.42,70.72c-0.33,0.04-0.67,0.05-1.01,0.05c-5.57,0-10.09-4.52-10.09-10.09S24.84,50.6,30.41,50.6       c0.34,0,0.68,0.02,1.01,0.05c-5.1,0.5-9.09,4.8-9.09,10.04S26.32,70.22,31.42,70.72z"/><circle class="st11" cx="30.16" cy="60.69" r="10.09"/></g><path class="st25" d="M32.43,59.5h-3.25v-2h3.25c0.72,0,1.31-0.59,1.31-1.31c0-0.72-0.59-1.31-1.31-1.31h-4.55      c-0.72,0-1.31,0.59-1.31,1.31v9c0,0.72,0.59,1.31,1.31,1.31c0.72,0,1.31-0.59,1.31-1.31v-3.07h3.25c0.72,0,1.31-0.59,1.31-1.31      C33.74,60.08,33.16,59.5,32.43,59.5z"/></g><g><g><circle class="st24" cx="61.85" cy="60.69" r="10.09"/><path class="st46" d="M63.12,70.72c-0.33,0.04-0.67,0.05-1.01,0.05c-5.57,0-10.09-4.52-10.09-10.09S56.54,50.6,62.11,50.6       c0.34,0,0.68,0.02,1.01,0.05c-5.1,0.5-9.09,4.8-9.09,10.04S58.02,70.22,63.12,70.72z"/><circle class="st11" cx="61.85" cy="60.69" r="10.09"/></g><g><path class="st26" d="M64.78,66.12h-5.86c-1.17,0-2.12-0.95-2.12-2.12v-6.63c0-1.17,0.95-2.12,2.12-2.12h5.86       c1.17,0,2.12,0.95,2.12,2.12V64C66.91,65.17,65.96,66.12,64.78,66.12z"/><circle class="st25" cx="61.85" cy="60.58" r="2.02"/><polyline class="st26" points="64.21,57.15 64.21,57.15 64.85,57.15      "/></g></g></g></g></g><g id="Layer_4"/></svg>