<svg xmlns="http://www.w3.org/2000/svg" viewBox="0 0 96 96"><g id="icon"><path d="M10.8,90.4a4.1,4.1,0,0,1-4.1-4.09.75.75,0,0,1,1.5,0,2.6,2.6,0,0,0,2.6,2.59.75.75,0,0,1,0,1.5Z"/><path d="M22,79.22a.75.75,0,0,1-.74-.61c-1.95-10.39,7-25,17.36-28.42a.75.75,0,1,1,.47,1.43c-9.78,3.22-18.19,16.95-16.35,26.71a.77.77,0,0,1-.6.88Z"/><path d="M29.64,63.35a1,1,0,0,1-.24,0,.76.76,0,0,1-.47-1,11.26,11.26,0,0,1,4.42-5.06A.75.75,0,0,1,34,58.63a9.92,9.92,0,0,0-3.69,4.21A.76.76,0,0,1,29.64,63.35Z"/><path d="M36.15,80.5a.76.76,0,0,1-.7-.47c-2.89-7.26-1-18.35,8.12-24.63a.75.75,0,1,1,.84,1.24c-8.5,5.83-10.24,16.12-7.57,22.83a.75.75,0,0,1-.42,1A.86.86,0,0,1,36.15,80.5Z"/><path d="M49.39,93.75a.75.75,0,1,1,0-1.5,5.93,5.93,0,1,0,0-11.85,5.86,5.86,0,0,0-3.72,1.31.74.74,0,0,1-.62.15.71.71,0,0,1-.51-.38,5,5,0,0,0-9.35,2.34.75.75,0,0,1-1.5,0,6.47,6.47,0,0,1,11.72-3.76,7.26,7.26,0,0,1,4-1.16,7.43,7.43,0,1,1,0,14.85Z"/><path d="M52.73,87.06a.76.76,0,0,1-.75-.75,2.58,2.58,0,0,0-2.59-2.58.75.75,0,0,1,0-1.5,4.09,4.09,0,0,1,4.09,4.08A.75.75,0,0,1,52.73,87.06Z"/><path d="M10.8,93.75a7.43,7.43,0,1,1,0-14.85,7.26,7.26,0,0,1,4,1.16A6.47,6.47,0,0,1,26.5,83.82a.75.75,0,0,1-1.5,0,5,5,0,0,0-9.35-2.33.75.75,0,0,1-.51.37.73.73,0,0,1-.62-.15A5.86,5.86,0,0,0,10.8,80.4a5.93,5.93,0,1,0,0,11.85.75.75,0,0,1,0,1.5Z"/><path d="M67.91,30.16a3.19,3.19,0,0,1-2.23-.95,2.9,2.9,0,0,1-.48-3.72.73.73,0,0,1,1-.17.74.74,0,0,1,.18,1,1.43,1.43,0,0,0,.33,1.79,1.54,1.54,0,0,0,1.59.43A1.07,1.07,0,0,0,69,27.37a2.83,2.83,0,0,0-.58-.93,6,6,0,0,1-.64-.94,2.66,2.66,0,0,1,.44-3,2.87,2.87,0,0,1,4,.23,3,3,0,0,1,.58,3.57.75.75,0,1,1-1.28-.78,1.45,1.45,0,0,0-.37-1.73,1.37,1.37,0,0,0-1.9-.23,1.16,1.16,0,0,0-.16,1.3,4.34,4.34,0,0,0,.48.69A4.17,4.17,0,0,1,70.41,27a2.61,2.61,0,0,1-1.5,3A2.58,2.58,0,0,1,67.91,30.16Z"/><path d="M71.67,24a.74.74,0,0,1-.53-.22.75.75,0,0,1,0-1.06l.76-.76A.75.75,0,1,1,73,23l-.75.76A.75.75,0,0,1,71.67,24Z"/><path d="M65.46,30.19a.77.77,0,0,1-.53-.22.74.74,0,0,1,0-1.06l.75-.76a.75.75,0,1,1,1.07,1.06L66,30A.79.79,0,0,1,65.46,30.19Z"/><path d="M50.49,56.77a.71.71,0,0,1-.53-.22L38.34,44.93a.75.75,0,0,1-.15-.84c.32-.7,8.07-17.28,17-26.18C69.46,3.61,91.63,2.26,91.85,2.25a.78.78,0,0,1,.57.22.76.76,0,0,1,.22.57c0,.22-1.36,22.39-15.66,36.69-8.67,8.67-18.5,15-26.31,17A.55.55,0,0,1,50.49,56.77ZM39.77,44.25,50.71,55.19c7.49-2,16.87-8.19,25.21-16.53C88.22,26.36,90.67,8,91.07,3.82,86.9,4.23,68.53,6.67,56.23,19,48.33,26.86,41.12,41.44,39.77,44.25Z"/><path d="M48.61,75.38a.78.78,0,0,1-.61-.32.74.74,0,0,1,.07-1c.1-.11,10-10.65,3.76-18.18A.75.75,0,0,1,53,55c5,6.09,1,13.68-1.77,17.58,9.17-4.6,15-10.05,17.29-16.23a14.58,14.58,0,0,0,.21-10.47.75.75,0,1,1,1.36-.63,15.88,15.88,0,0,1-.16,11.62c-2.69,7.2-9.75,13.41-21,18.46A.82.82,0,0,1,48.61,75.38Z"/><path d="M20.27,47A.75.75,0,0,1,19.58,46c5-11.13,11.2-18.15,18.43-20.85a16.45,16.45,0,0,1,12-.15.75.75,0,1,1-.63,1.36,15.31,15.31,0,0,0-10.93.21c-6.2,2.33-11.63,8.11-16.19,17.19C26.24,41,34,37,40.19,42.07a.75.75,0,1,1-.95,1.16c-7.54-6.2-18.36,3.5-18.47,3.6A.74.74,0,0,1,20.27,47Z"/><path d="M87.7,22a.74.74,0,0,1-.53-.22l-14-14a.74.74,0,0,1,0-1.06.75.75,0,0,1,1.06,0l14,14a.75.75,0,0,1,0,1.06A.74.74,0,0,1,87.7,22Z"/><path d="M68.94,34.59a8.64,8.64,0,1,1,6.12-2.53h0A8.66,8.66,0,0,1,68.94,34.59Zm0-15.78A7.14,7.14,0,1,0,74,20.9,7.1,7.1,0,0,0,68.94,18.81Zm5.59,12.72h0Z"/><path d="M55.5,55a.73.73,0,0,1-.53-.22L40.6,40.42a.74.74,0,0,1,0-1.06.75.75,0,0,1,1.06,0L56,53.73a.75.75,0,0,1,0,1.06A.74.74,0,0,1,55.5,55Z"/><path d="M45.39,58.18a.79.79,0,0,1-.53-.22L36.94,50a.76.76,0,0,1-.12-.92l2.45-4a.74.74,0,0,1,1.17-.14L50,54.45a.72.72,0,0,1,.22.62.75.75,0,0,1-.36.55l-4,2.45A.77.77,0,0,1,45.39,58.18Zm-7-8.8,7.1,7.1,2.73-1.65-8.18-8.18Z"/></g></svg>