<svg id="Layer_1" data-name="Layer 1" xmlns="http://www.w3.org/2000/svg" viewBox="0 0 94 94"><path d="M62.81,25.54H44a3.72,3.72,0,0,1-3.71-3.71V9.59A3.71,3.71,0,0,1,44,5.89H62.81a3.71,3.71,0,0,1,3.71,3.7V21.83A3.71,3.71,0,0,1,62.81,25.54ZM44,7.39a2.21,2.21,0,0,0-2.21,2.2V21.83A2.21,2.21,0,0,0,44,24H62.81A2.21,2.21,0,0,0,65,21.83V9.59a2.21,2.21,0,0,0-2.21-2.2Z"/><path d="M53.39,17.9a2.93,2.93,0,0,1-2-.78L41.48,8a.76.76,0,0,1,0-1.06.75.75,0,0,1,1.06,0L52.41,16a1.45,1.45,0,0,0,2,0l9.91-9.17a.75.75,0,1,1,1,1.1l-9.91,9.17A2.93,2.93,0,0,1,53.39,17.9Z"/><path d="M88.61,47.37h-18a4.14,4.14,0,0,1-4.14-4.13V31.86a4.15,4.15,0,0,1,4.14-4.14h18a4.15,4.15,0,0,1,4.14,4.14V43.24A4.14,4.14,0,0,1,88.61,47.37Zm-18-18.15A2.64,2.64,0,0,0,68,31.86V43.24a2.64,2.64,0,0,0,2.64,2.63h18a2.64,2.64,0,0,0,2.64-2.63V31.86a2.64,2.64,0,0,0-2.64-2.64Z"/><path d="M78.07,42.17a1.76,1.76,0,0,1-.83-.21,1.72,1.72,0,0,1-.89-1.51V34.64A1.72,1.72,0,0,1,79,33.19l4.56,2.9a1.72,1.72,0,0,1,0,2.91L79,41.91A1.79,1.79,0,0,1,78.07,42.17Zm0-7.75a.16.16,0,0,0-.11,0,.2.2,0,0,0-.12.19v5.81a.22.22,0,0,0,.34.19l4.57-2.9a.22.22,0,0,0,.1-.19.2.2,0,0,0-.1-.19l-4.57-2.91h0Z"/><path d="M83.57,74.1h-18A4.15,4.15,0,0,1,61.45,70V58.58a4.15,4.15,0,0,1,4.14-4.14h18a4.15,4.15,0,0,1,4.14,4.14V70A4.15,4.15,0,0,1,83.57,74.1Zm-18-18.16A2.64,2.64,0,0,0,63,58.58V70a2.65,2.65,0,0,0,2.64,2.64h18A2.65,2.65,0,0,0,86.21,70V58.58a2.64,2.64,0,0,0-2.64-2.64Z"/><path d="M74.58,64.62A3.46,3.46,0,1,1,78,61.16,3.46,3.46,0,0,1,74.58,64.62Zm0-5.42a2,2,0,1,0,2,2A2,2,0,0,0,74.58,59.2Z"/><path d="M74.58,67.14a6,6,0,0,1-3.89-1.44.75.75,0,1,1,1-1.14,4.58,4.58,0,0,0,5.82,0,.75.75,0,1,1,1,1.14A6,6,0,0,1,74.58,67.14Z"/><path d="M69.35,69.85a.76.76,0,0,1-.75-.75,6,6,0,0,1,2.09-4.54.75.75,0,0,1,1,1.14,4.45,4.45,0,0,0-1.57,3.4A.75.75,0,0,1,69.35,69.85Z"/><path d="M79.81,69.85a.75.75,0,0,1-.75-.75,4.45,4.45,0,0,0-1.57-3.4.75.75,0,1,1,1-1.14,6,6,0,0,1,2.09,4.54A.76.76,0,0,1,79.81,69.85Z"/><path d="M12.92,76a.77.77,0,0,1-.48-.16c-.36-.3-8.9-7.37-8.52-18.13a.76.76,0,0,1,.43-.65l11.34-5.33a.73.73,0,0,1,.66,0,.75.75,0,0,1,.4.53c0,.13,2.24,12.27,8,17.07a.74.74,0,0,1,.26.68.75.75,0,0,1-.42.58L13.24,76A.77.77,0,0,1,12.92,76ZM5.41,58.26C5.33,66.83,11.49,73,13,74.41l9.88-4.65c-4.65-4.66-6.84-13.33-7.46-16.23Z"/><path d="M7.46,74.34a3,3,0,0,1-2.67-1.69L1.53,65.73A3,3,0,0,1,3,61.8L4.63,61a.75.75,0,0,1,.63,1.36l-1.68.79a1.45,1.45,0,0,0-.69,1.93L6.14,72a1.45,1.45,0,0,0,1.94.69l1.81-.85a.75.75,0,0,1,.64,1.36l-1.81.85A3,3,0,0,1,7.46,74.34Z"/><path d="M53.22,68.93c-1.8,0-4-1.31-6.43-3.87A49.09,49.09,0,0,1,38.61,52.5C34.2,43.11,31.92,32,36.4,29.89c2-.95,4.72.29,7.84,3.56A49.26,49.26,0,0,1,52.42,46a49,49,0,0,1,4.46,14.3c.53,4.49-.24,7.37-2.25,8.31A3.23,3.23,0,0,1,53.22,68.93ZM37.8,31.09a1.7,1.7,0,0,0-.76.16C34.42,32.48,35,41.25,40,51.86A47.36,47.36,0,0,0,47.88,64c2.52,2.65,4.8,3.86,6.11,3.24s1.83-3.14,1.4-6.77a47.25,47.25,0,0,0-4.33-13.84h0a47.28,47.28,0,0,0-7.91-12.16C41.07,32.3,39.14,31.09,37.8,31.09Z"/><path d="M16,53.2a.75.75,0,0,1-.41-1.38,49.19,49.19,0,0,0,10.87-9.47,46.74,46.74,0,0,0,3.25-4.62,29.85,29.85,0,0,1,5.73-7.17,5.91,5.91,0,0,1,.9-.64.75.75,0,0,1,.74,1.3,5,5,0,0,0-.68.49A28.44,28.44,0,0,0,31,38.54a48.32,48.32,0,0,1-3.36,4.77,50.23,50.23,0,0,1-11.2,9.76A.71.71,0,0,1,16,53.2Z"/><path d="M24.25,70.71A.75.75,0,0,1,24,69.24a51,51,0,0,1,14.66-2.41,48.92,48.92,0,0,1,5.82.46,28.76,28.76,0,0,0,8.72.17,5.29,5.29,0,0,0,.82-.22.75.75,0,0,1,.53,1.41,7.15,7.15,0,0,1-1.07.28,30,30,0,0,1-9.18-.15,44.94,44.94,0,0,0-5.63-.45,49.1,49.1,0,0,0-14.23,2.35A.83.83,0,0,1,24.25,70.71Z"/><path d="M24.34,88.11a.71.71,0,0,1-.5-.19.69.69,0,0,1-.25-.57c.07-3.18-5.32-10.76-7.4-13.41a.77.77,0,0,1,.13-1.06.75.75,0,0,1,1.05.13c.75.95,6.9,8.9,7.64,13.45a16.37,16.37,0,0,0,5.85-2.75c-1.73-1.71-6.6-6.82-9-12.68a.73.73,0,0,1,.41-1,.75.75,0,0,1,1,.41C26,77.21,32.44,83.15,32.5,83.2a.77.77,0,0,1,.25.57.8.8,0,0,1-.26.56,17.4,17.4,0,0,1-8,3.78Z"/><path d="M42,57.93a.74.74,0,0,1-.55-.24.75.75,0,0,1,.05-1.06L45,53.42A3.74,3.74,0,0,0,41.76,47l-4.48.85A.75.75,0,1,1,37,46.34l4.48-.84a5.24,5.24,0,0,1,4.5,9l-3.52,3.21A.77.77,0,0,1,42,57.93Z"/><path d="M55.34,43.9a.76.76,0,0,1-.29-1.45l5.58-2.3a.75.75,0,1,1,.57,1.39l-5.57,2.3A.75.75,0,0,1,55.34,43.9Z"/><path d="M52.14,39.28a.72.72,0,0,1-.44-.14.74.74,0,0,1-.16-1l3.2-4.33a.75.75,0,0,1,1-.15.74.74,0,0,1,.15,1L52.75,39A.76.76,0,0,1,52.14,39.28Z"/><path d="M61.9,49.06H56.48a.75.75,0,1,1,0-1.5H61.9a.75.75,0,1,1,0,1.5Z"/></svg>