<svg xmlns="http://www.w3.org/2000/svg" viewBox="0 0 96 96"><g id="icon"><path d="M57.9,73.77H38.11a.76.76,0,0,1-.75-.71,18.66,18.66,0,0,0-7-13.61h0a28.14,28.14,0,1,1,35.22,0,18.54,18.54,0,0,0-7,13.6A.74.74,0,0,1,57.9,73.77Zm-19.09-1.5H57.2a20,20,0,0,1,7.48-14,26.64,26.64,0,1,0-33.35,0h0A20.15,20.15,0,0,1,38.81,72.27Z"/><path d="M45.76,73.77A.76.76,0,0,1,45,73.1L42.64,50.93a.77.77,0,0,1,.67-.83.75.75,0,0,1,.82.67l2.38,22.17a.75.75,0,0,1-.67.82Z"/><path d="M50.24,73.77h-.08a.75.75,0,0,1-.67-.82l2.38-22.17a.74.74,0,0,1,.82-.67.77.77,0,0,1,.67.83L51,73.1A.76.76,0,0,1,50.24,73.77Z"/><path d="M48,52.35a15.64,15.64,0,1,1,15.3-15.63A15.48,15.48,0,0,1,48,52.35Zm0-29.77a14.14,14.14,0,1,0,13.8,14.14A14,14,0,0,0,48,22.58Z"/><path d="M48,6.71A.75.75,0,0,1,47.25,6V3a.75.75,0,0,1,1.5,0V6A.75.75,0,0,1,48,6.71Z"/><path d="M32.35,10.91a.76.76,0,0,1-.65-.38L30.22,8a.75.75,0,1,1,1.3-.75L33,9.78a.74.74,0,0,1-.28,1A.7.7,0,0,1,32.35,10.91Z"/><path d="M20.89,22.36a.69.69,0,0,1-.37-.1L18,20.78a.75.75,0,0,1,.75-1.3L21.27,21a.76.76,0,0,1,.27,1A.75.75,0,0,1,20.89,22.36Z"/><path d="M16.7,38h-3a.75.75,0,0,1,0-1.5h3a.75.75,0,0,1,0,1.5Z"/><path d="M82.26,38h-3a.75.75,0,0,1,0-1.5h3a.75.75,0,0,1,0,1.5Z"/><path d="M75.11,22.36a.75.75,0,0,1-.65-.37.76.76,0,0,1,.27-1l2.57-1.48a.75.75,0,0,1,.75,1.3l-2.57,1.48A.69.69,0,0,1,75.11,22.36Z"/><path d="M63.65,10.91a.7.7,0,0,1-.37-.11.74.74,0,0,1-.28-1l1.48-2.56a.75.75,0,1,1,1.3.75L64.3,10.53A.76.76,0,0,1,63.65,10.91Z"/><path d="M48,43.68a4.26,4.26,0,0,1-4.34-3.3.75.75,0,0,1,.62-.86.76.76,0,0,1,.86.62,2.77,2.77,0,0,0,2.86,2,3,3,0,0,0,2.73-1.6,2.21,2.21,0,0,0-.87-2.66,5,5,0,0,0-1.89-.47,8.24,8.24,0,0,1-1.72-.32,3.78,3.78,0,0,1-2.64-3.52A4.15,4.15,0,0,1,48,29.75a4.31,4.31,0,0,1,4.29,3,.77.77,0,0,1-.56.91.75.75,0,0,1-.9-.56A2.81,2.81,0,0,0,48,31.25a2.66,2.66,0,0,0-2.89,2.36,2.28,2.28,0,0,0,1.61,2.1A6.77,6.77,0,0,0,48.1,36a6.34,6.34,0,0,1,2.46.65,3.7,3.7,0,0,1,1.51,4.54A4.38,4.38,0,0,1,48,43.68Z"/><path d="M48,31.25a.75.75,0,0,1-.75-.75V28.77a.75.75,0,0,1,1.5,0V30.5A.76.76,0,0,1,48,31.25Z"/><path d="M48,45.41a.75.75,0,0,1-.75-.75V42.93a.75.75,0,0,1,1.5,0v1.73A.76.76,0,0,1,48,45.41Z"/><path d="M60.83,80.51H35.17a4.12,4.12,0,1,1,0-8.24H60.83a4.12,4.12,0,0,1,0,8.24ZM35.17,73.77a2.62,2.62,0,0,0,0,5.24H60.83a2.62,2.62,0,0,0,0-5.24Z"/><path d="M60.83,87.25H35.17a4.12,4.12,0,0,1,0-8.24H60.83a4.12,4.12,0,1,1,0,8.24ZM35.17,80.51a2.62,2.62,0,1,0,0,5.24H60.83a2.62,2.62,0,1,0,0-5.24Z"/><path d="M49.14,93.75H46.77a7.26,7.26,0,0,1-7.26-7.25.75.75,0,0,1,.75-.75H55.65a.75.75,0,0,1,.75.75A7.26,7.26,0,0,1,49.14,93.75Zm-8.08-6.5a5.76,5.76,0,0,0,5.71,5h2.37a5.76,5.76,0,0,0,5.71-5Z"/></g></svg>