<svg xmlns="http://www.w3.org/2000/svg" viewBox="0 0 96 96"><g id="icon"><path d="M86.93,88.19H4.82a2.57,2.57,0,0,1-2.57-2.56V75.37a3.28,3.28,0,0,1,3.28-3.28H28V63.4a3.28,3.28,0,0,1,3.27-3.27h24.6V41.64a3.28,3.28,0,0,1,3.27-3.27H86.22a3.28,3.28,0,0,1,3.28,3.27v44A2.57,2.57,0,0,1,86.93,88.19ZM5.53,73.59a1.78,1.78,0,0,0-1.78,1.78V85.63a1.07,1.07,0,0,0,1.07,1.06H86.93A1.07,1.07,0,0,0,88,85.63v-44a1.78,1.78,0,0,0-1.78-1.77H59.09a1.77,1.77,0,0,0-1.77,1.77V60.88a.76.76,0,0,1-.75.75H31.22a1.77,1.77,0,0,0-1.77,1.77v9.44a.76.76,0,0,1-.75.75Z"/><path d="M69.27,61.63H56.57a.75.75,0,0,1,0-1.5h12.7a.75.75,0,0,1,0,1.5Z"/><path d="M41.4,73.6H28.7a.75.75,0,0,1,0-1.5H41.4a.75.75,0,1,1,0,1.5Z"/><path d="M15.74,62.79A.75.75,0,0,1,15,62V59.59a.75.75,0,1,1,1.5,0V62A.76.76,0,0,1,15.74,62.79Z"/><path d="M8.9,62.79A.75.75,0,0,1,8.15,62V48.83a.74.74,0,0,1,.75-.75h6.84a.75.75,0,0,1,.75.75v7.29a.75.75,0,1,1-1.5,0V49.58H9.65V62A.76.76,0,0,1,8.9,62.79Z"/><path d="M19,49.58H5.69a1.5,1.5,0,0,1-1.15-2.45l6.63-8a1.54,1.54,0,0,1,2.3,0l6.63,8A1.5,1.5,0,0,1,19,49.58Zm-6.63-9.51-6.63,8H19Z"/><path d="M42.56,50.85a.75.75,0,0,1-.75-.75V47.65a.75.75,0,0,1,1.5,0V50.1A.76.76,0,0,1,42.56,50.85Z"/><path d="M35.71,50.85A.76.76,0,0,1,35,50.1V36.89a.75.75,0,0,1,.75-.75h6.85a.75.75,0,0,1,.75.75v7.29a.75.75,0,1,1-1.5,0V37.64H36.46V50.1A.75.75,0,0,1,35.71,50.85Z"/><path d="M45.77,37.64H32.51a1.49,1.49,0,0,1-1.36-.86,1.51,1.51,0,0,1,.21-1.6l6.62-8a1.52,1.52,0,0,1,1.16-.54h0a1.49,1.49,0,0,1,1.15.54l6.63,8a1.51,1.51,0,0,1,.2,1.6A1.49,1.49,0,0,1,45.77,37.64Zm-6.63-9.51-6.63,8H45.77Z"/><path d="M93,19.57H88.17a.75.75,0,0,1,0-1.5H93a.75.75,0,0,1,0,1.5Z"/><path d="M88.17,15.25a.72.72,0,0,1-.58-.28.75.75,0,0,1,.11-1.05l4.14-3.35a.75.75,0,0,1,1,1.17l-4.15,3.35A.74.74,0,0,1,88.17,15.25Z"/><path d="M92.31,27.24a.78.78,0,0,1-.47-.17L87.7,23.72a.75.75,0,0,1-.11-1,.74.74,0,0,1,1-.12l4.15,3.35A.76.76,0,0,1,92.9,27,.77.77,0,0,1,92.31,27.24Z"/><path d="M56.26,19.57H51.43a.75.75,0,0,1,0-1.5h4.83a.75.75,0,0,1,0,1.5Z"/><path d="M52.12,27.24a.75.75,0,0,1-.47-1.34l4.14-3.35a.74.74,0,0,1,1.05.12.73.73,0,0,1-.11,1l-4.14,3.35A.75.75,0,0,1,52.12,27.24Z"/><path d="M56.26,15.25a.76.76,0,0,1-.47-.16l-4.14-3.35a.76.76,0,0,1-.11-1.06.75.75,0,0,1,1.05-.11l4.14,3.35A.73.73,0,0,1,56.84,15,.71.71,0,0,1,56.26,15.25Z"/><path d="M66.51,29.83a2.19,2.19,0,0,1-1.31-.43,2.22,2.22,0,0,1-.89-2.18l.9-5.2-3.78-3.68a2.22,2.22,0,0,1,1.23-3.8l5.22-.76,2.34-4.73a2.2,2.2,0,0,1,2-1.24h0a2.19,2.19,0,0,1,2,1.24l2.34,4.73,5.22.76a2.19,2.19,0,0,1,1.8,1.52A2.22,2.22,0,0,1,83,18.34L79.23,22l.89,5.2a2.23,2.23,0,0,1-3.23,2.35l-4.67-2.45-4.68,2.45A2.1,2.1,0,0,1,66.51,29.83Zm5.71-4.25a1.26,1.26,0,0,1,.57.14l4.8,2.52a.7.7,0,0,0,.76,0,.71.71,0,0,0,.29-.71l-.91-5.34a1.25,1.25,0,0,1,.35-1.1L82,17.26a.7.7,0,0,0,.18-.74.69.69,0,0,0-.58-.49l-5.36-.78a1.24,1.24,0,0,1-.93-.68l-2.4-4.86h0a.72.72,0,0,0-.65-.4h0a.7.7,0,0,0-.65.4l-2.4,4.86a1.23,1.23,0,0,1-.94.68L62.88,16a.71.71,0,0,0-.59.49.7.7,0,0,0,.18.74L66.35,21a1.25,1.25,0,0,1,.36,1.1l-.92,5.34a.73.73,0,0,0,.29.71.72.72,0,0,0,.77,0l4.79-2.52A1.3,1.3,0,0,1,72.22,25.58Zm-6.91-3.46Zm13.82,0ZM68,13.76Zm8.39,0Z"/></g></svg>