<?xml version="1.0" ?><svg id="Capa_1" style="enable-background:new 0 0 512 512;" version="1.1" viewBox="0 0 512 512" xml:space="preserve" xmlns="http://www.w3.org/2000/svg" xmlns:xlink="http://www.w3.org/1999/xlink"><style type="text/css">
	.st0{fill:#232323;}
</style><g><path class="st0" d="M375.4,85c-10.2-6.2-20.9-11.6-31.9-16.1c-5.1-2.1-10.9,0.3-13,5.4c-2.1,5.1,0.3,10.9,5.4,13   c10,4.1,19.9,9.1,29.2,14.7c63.4,38.5,101.3,105.8,101.3,179.9c0,41.2-11.9,81-34.4,115.3c-3,4.6-1.7,10.8,2.9,13.8   c1.7,1.1,3.6,1.6,5.5,1.6c3.2,0,6.4-1.6,8.3-4.5c24.6-37.5,37.7-81.2,37.7-126.3C486.2,200.8,444.8,127.2,375.4,85z"/><path class="st0" d="M389.4,444.5c-37.5,30.8-84.8,47.7-133.4,47.7c-116,0-210.3-94.3-210.3-210.3c0-74.1,37.9-141.3,101.3-179.9   c9.3-5.6,19.1-10.6,29.2-14.7c5.1-2.1,7.5-7.9,5.4-13c-2.1-5.1-7.9-7.5-13-5.4c-11,4.5-21.7,10-31.9,16.1   C67.2,127.2,25.8,200.8,25.8,281.9c0,127,103.3,230.2,230.2,230.2c53.2,0,105.1-18.6,146.1-52.3c4.3-3.5,4.9-9.8,1.4-14   C400,441.6,393.7,441,389.4,444.5z"/><path class="st0" d="M256,291.9c5.5,0,10-4.5,10-10V9.8c0-5.5-4.5-10-10-10c-5.5,0-10,4.5-10,10v272.1   C246,287.4,250.5,291.9,256,291.9z"/></g></svg>